<?xml version="1.0" encoding="UTF-8" standalone="no"?>
<!-- Created with Inkscape (http://www.inkscape.org/) -->

<svg
   width="400"
   height="400"
   viewBox="0 0 105.83333 105.83333"
   version="1.1"
   id="svg523"
   inkscape:version="1.2 (dc2aeda, 2022-05-15)"
   sodipodi:docname="howdy.svg"
   xml:space="preserve"
   xmlns:inkscape="http://www.inkscape.org/namespaces/inkscape"
   xmlns:sodipodi="http://sodipodi.sourceforge.net/DTD/sodipodi-0.dtd"
   xmlns:xlink="http://www.w3.org/1999/xlink"
   xmlns="http://www.w3.org/2000/svg"
   xmlns:svg="http://www.w3.org/2000/svg"><sodipodi:namedview
     id="namedview525"
     pagecolor="#16161c"
     bordercolor="#eeeeee"
     borderopacity="1"
     inkscape:showpageshadow="0"
     inkscape:pageopacity="0"
     inkscape:pagecheckerboard="0"
     inkscape:deskcolor="#505050"
     inkscape:document-units="px"
     showgrid="false"
     inkscape:zoom="2.7666799"
     inkscape:cx="225.54109"
     inkscape:cy="121.08376"
     inkscape:window-width="1440"
     inkscape:window-height="900"
     inkscape:window-x="0"
     inkscape:window-y="0"
     inkscape:window-maximized="0"
     inkscape:current-layer="g38429" /><defs
     id="defs520"><linearGradient
       inkscape:collect="always"
       id="linearGradient35336"><stop
         style="stop-color:#ffffff;stop-opacity:1;"
         offset="0"
         id="stop35332" /><stop
         style="stop-color:#000000;stop-opacity:1"
         offset="1"
         id="stop35334" /></linearGradient><linearGradient
       inkscape:collect="always"
       id="linearGradient12854"><stop
         style="stop-color:#000000;stop-opacity:1;"
         offset="0"
         id="stop12850" /><stop
         style="stop-color:#ffffff;stop-opacity:1"
         offset="0.35066351"
         id="stop12982" /><stop
         style="stop-color:#ffffff;stop-opacity:1"
         offset="1"
         id="stop12852" /></linearGradient><mask
       maskUnits="userSpaceOnUse"
       id="mask23724"><rect
         style="fill:url(#linearGradient23728);fill-opacity:1;stroke-width:1.05833;stroke-linecap:round"
         id="rect23726"
         width="105.97196"
         height="106.3355"
         x="-0.18177007"
         y="-0.18177016" /></mask><linearGradient
       inkscape:collect="always"
       xlink:href="#linearGradient12854"
       id="linearGradient23728"
       gradientUnits="userSpaceOnUse"
       x1="105.60842"
       y1="54.803684"
       x2="52.531563"
       y2="54.803684"
       spreadMethod="reflect" /><mask
       maskUnits="userSpaceOnUse"
       id="mask35340"><rect
         style="opacity:1;fill:url(#linearGradient35344);fill-opacity:1;stroke:none;stroke-width:1.05833;stroke-linecap:round"
         id="rect35342"
         width="99.810249"
         height="100.76689"
         x="0.58485931"
         y="0.043161567" /></mask><linearGradient
       inkscape:collect="always"
       xlink:href="#linearGradient35336"
       id="linearGradient35344"
       gradientUnits="userSpaceOnUse"
       x1="57.549629"
       y1="62.317051"
       x2="57.549629"
       y2="106.586"
       gradientTransform="matrix(0.93642929,0,0,0.93642929,1.5415071,0.99980934)" /></defs><g
     inkscape:label="Слой 1"
     inkscape:groupmode="layer"
     id="layer1"><g
       id="g5890"
       transform="matrix(1.0678863,0,0,1.0678863,-1.6461543,-1.0676827)"
       style="stroke-width:0.936429;opacity:0.33916849"
       mask="url(#mask35340)"><rect
         style="fill:#28283f;fill-opacity:1;stroke:none;stroke-width:0.991054;stroke-linecap:round;opacity:0"
         id="rect35253"
         width="117.98656"
         height="120.53761"
         x="-8.024971"
         y="-7.6100202" /><g
         id="g36343"
         style="fill:#333aa7;fill-opacity:1"><g
           id="g16564"
           style="fill:#242a7a;fill-opacity:1;stroke-width:0.879103"
           transform="matrix(1.0652099,0,0,1.0652099,-4.4667218,-3.9932812)"><g
             id="g16290"
             transform="translate(0.155625,0.361136)"
             style="fill:#242a7a;fill-opacity:1"><path
               style="fill:#242a7a;fill-opacity:1;stroke:none;stroke-width:0.930384;stroke-linecap:round"
               d="M 70.951463,67.604007 88.951222,86.924849 89.281492,86.677145 71.281736,67.356304 Z"
               id="path16284" /><path
               style="fill:#242a7a;fill-opacity:1;stroke:none;stroke-width:0.930384;stroke-linecap:round"
               d="M 71.881847,65.743239 89.881606,85.064081 90.211876,84.816377 72.21212,65.495536 Z"
               id="path16286" /></g><g
             id="g16296"
             transform="rotate(120,80.555231,76.435686)"
             style="fill:#242a7a;fill-opacity:1"><path
               style="fill:#242a7a;fill-opacity:1;stroke:none;stroke-width:0.930384;stroke-linecap:round"
               d="M 70.951463,67.604007 88.951222,86.924849 89.281492,86.677145 71.281736,67.356304 Z"
               id="path16292" /><path
               style="fill:#242a7a;fill-opacity:1;stroke:none;stroke-width:0.930384;stroke-linecap:round"
               d="M 71.881847,65.743239 89.881606,85.064081 90.211876,84.816377 72.21212,65.495536 Z"
               id="path16294" /></g><g
             id="g16302"
             transform="rotate(-120,80.763732,76.345836)"
             style="fill:#242a7a;fill-opacity:1"><path
               style="fill:#242a7a;fill-opacity:1;stroke:none;stroke-width:0.930384;stroke-linecap:round"
               d="M 70.951463,67.604007 88.951222,86.924849 89.281492,86.677145 71.281736,67.356304 Z"
               id="path16298" /><path
               style="fill:#242a7a;fill-opacity:1;stroke:none;stroke-width:0.930384;stroke-linecap:round"
               d="M 71.881847,65.743239 89.881606,85.064081 90.211876,84.816377 72.21212,65.495536 Z"
               id="path16300" /></g><g
             id="g16372"
             style="fill:#242a7a;fill-opacity:1"
             inkscape:transform-center-x="7.8656453"
             inkscape:transform-center-y="-2.9312964"><path
               style="fill:#242a7a;fill-opacity:1;stroke:none;stroke-width:0.930384;stroke-linecap:round"
               d="m 80.299831,75.338008 -13.045828,-0.781832 -0.05519,0.409132 13.045825,0.781834 z"
               id="path16304"
               sodipodi:nodetypes="ccccc"
               inkscape:transform-center-x="7.9497511"
               inkscape:transform-center-y="-1.4580494" /><path
               style="fill:#242a7a;fill-opacity:1;stroke:none;stroke-width:0.930384;stroke-linecap:round"
               d="M 79.977428,77.188602 68.518547,70.43117 68.338107,70.802487 79.796984,77.55992 Z"
               id="path16368"
               sodipodi:nodetypes="ccccc"
               inkscape:transform-center-x="7.0942957"
               inkscape:transform-center-y="-3.872392" /></g><g
             id="g16378"
             style="fill:#242a7a;fill-opacity:1"
             inkscape:transform-center-x="6.2390931"
             inkscape:transform-center-y="6.0037534"
             transform="rotate(-60,80.664035,76.572457)"><path
               style="fill:#242a7a;fill-opacity:1;stroke:none;stroke-width:0.930384;stroke-linecap:round"
               d="m 80.299831,75.338008 -13.045828,-0.781832 -0.05519,0.409132 13.045825,0.781834 z"
               id="path16374"
               sodipodi:nodetypes="ccccc"
               inkscape:transform-center-x="7.9497511"
               inkscape:transform-center-y="-1.4580494" /><path
               style="fill:#242a7a;fill-opacity:1;stroke:none;stroke-width:0.930384;stroke-linecap:round"
               d="M 79.977428,77.188602 68.518547,70.43117 68.338107,70.802487 79.796984,77.55992 Z"
               id="path16376"
               sodipodi:nodetypes="ccccc"
               inkscape:transform-center-x="7.0942957"
               inkscape:transform-center-y="-3.872392" /></g><g
             id="g16384"
             style="fill:#242a7a;fill-opacity:1"
             inkscape:transform-center-x="-2.5331599"
             inkscape:transform-center-y="7.8751302"
             transform="rotate(-120,80.664035,76.572457)"><path
               style="fill:#242a7a;fill-opacity:1;stroke:none;stroke-width:0.930384;stroke-linecap:round"
               d="m 80.299831,75.338008 -13.045828,-0.781832 -0.05519,0.409132 13.045825,0.781834 z"
               id="path16380"
               sodipodi:nodetypes="ccccc"
               inkscape:transform-center-x="7.9497511"
               inkscape:transform-center-y="-1.4580494" /><path
               style="fill:#242a7a;fill-opacity:1;stroke:none;stroke-width:0.930384;stroke-linecap:round"
               d="M 79.977428,77.188602 68.518547,70.43117 68.338107,70.802487 79.796984,77.55992 Z"
               id="path16382"
               sodipodi:nodetypes="ccccc"
               inkscape:transform-center-x="7.0942957"
               inkscape:transform-center-y="-3.872392" /></g><g
             id="g16390"
             style="fill:#242a7a;fill-opacity:1"
             inkscape:transform-center-x="-7.8656456"
             inkscape:transform-center-y="2.9312972"
             transform="rotate(180,80.664035,76.572457)"><path
               style="fill:#242a7a;fill-opacity:1;stroke:none;stroke-width:0.930384;stroke-linecap:round"
               d="m 80.299831,75.338008 -13.045828,-0.781832 -0.05519,0.409132 13.045825,0.781834 z"
               id="path16386"
               sodipodi:nodetypes="ccccc"
               inkscape:transform-center-x="7.9497511"
               inkscape:transform-center-y="-1.4580494" /><path
               style="fill:#242a7a;fill-opacity:1;stroke:none;stroke-width:0.930384;stroke-linecap:round"
               d="M 79.977428,77.188602 68.518547,70.43117 68.338107,70.802487 79.796984,77.55992 Z"
               id="path16388"
               sodipodi:nodetypes="ccccc"
               inkscape:transform-center-x="7.0942957"
               inkscape:transform-center-y="-3.872392" /></g><g
             id="g16396"
             style="fill:#242a7a;fill-opacity:1"
             inkscape:transform-center-x="-6.2390934"
             inkscape:transform-center-y="-6.0037526"
             transform="rotate(120,80.664035,76.572457)"><path
               style="fill:#242a7a;fill-opacity:1;stroke:none;stroke-width:0.930384;stroke-linecap:round"
               d="m 80.299831,75.338008 -13.045828,-0.781832 -0.05519,0.409132 13.045825,0.781834 z"
               id="path16392"
               sodipodi:nodetypes="ccccc"
               inkscape:transform-center-x="7.9497511"
               inkscape:transform-center-y="-1.4580494" /><path
               style="fill:#242a7a;fill-opacity:1;stroke:none;stroke-width:0.930384;stroke-linecap:round"
               d="M 79.977428,77.188602 68.518547,70.43117 68.338107,70.802487 79.796984,77.55992 Z"
               id="path16394"
               sodipodi:nodetypes="ccccc"
               inkscape:transform-center-x="7.0942957"
               inkscape:transform-center-y="-3.872392" /></g><g
             id="g16402"
             style="fill:#242a7a;fill-opacity:1"
             inkscape:transform-center-x="2.5331596"
             inkscape:transform-center-y="-7.8751294"
             transform="rotate(60,80.664035,76.572457)"><path
               style="fill:#242a7a;fill-opacity:1;stroke:none;stroke-width:0.930384;stroke-linecap:round"
               d="m 80.299831,75.338008 -13.045828,-0.781832 -0.05519,0.409132 13.045825,0.781834 z"
               id="path16398"
               sodipodi:nodetypes="ccccc"
               inkscape:transform-center-x="7.9497511"
               inkscape:transform-center-y="-1.4580494" /><path
               style="fill:#242a7a;fill-opacity:1;stroke:none;stroke-width:0.930384;stroke-linecap:round"
               d="M 79.977428,77.188602 68.518547,70.43117 68.338107,70.802487 79.796984,77.55992 Z"
               id="path16400"
               sodipodi:nodetypes="ccccc"
               inkscape:transform-center-x="7.0942957"
               inkscape:transform-center-y="-3.872392" /></g></g><path
           id="path14754"
           style="fill:#333aa7;fill-opacity:1;stroke:none;stroke-width:0.991054;stroke-linecap:round"
           d="M 81.535443,61.700218 A 15.871131,15.871131 0 0 0 65.664148,77.570999 15.871131,15.871131 0 0 0 81.535443,93.442294 15.871131,15.871131 0 0 0 97.406739,77.570999 15.871131,15.871131 0 0 0 81.535443,61.700218 Z m 0,2.722193 A 13.148609,13.148609 0 0 1 94.684031,77.570999 13.148609,13.148609 0 0 1 81.535443,90.720101 13.148609,13.148609 0 0 1 68.386856,77.570999 13.148609,13.148609 0 0 1 81.535443,64.422411 Z" /><path
           style="fill:#333aa7;fill-opacity:1;stroke:none;stroke-width:0.991054;stroke-linecap:round"
           d="m 82.82222,78.429144 -6.00529,-18.730792 -3.574581,0.714915 7.864073,18.444826 z"
           id="path14756" /><path
           style="fill:#333aa7;fill-opacity:1;stroke:none;stroke-width:0.991054;stroke-linecap:round"
           d="m 73.296366,60.413267 -0.714914,-7.149158 2.859662,-0.714917 1.000883,0.428949 0.714915,7.006176 z"
           id="path14758" /><path
           style="fill:#333aa7;fill-opacity:1;stroke:none;stroke-width:0.991054;stroke-linecap:round"
           d="m 73.380055,54.026698 -27.24643,2.555405 0.281199,2.343319 27.715091,-1.618076 z"
           id="path14760"
           sodipodi:nodetypes="ccccc" /><path
           style="fill:#333aa7;fill-opacity:1;stroke:none;stroke-width:0.991054;stroke-linecap:round"
           d="m 73.848719,58.959977 -23.97572,17.577271 1.124794,2.718251 23.694521,-17.296072 z"
           id="path14762"
           sodipodi:nodetypes="ccccc" /><path
           style="fill:#333aa7;fill-opacity:1;stroke:none;stroke-width:0.991054;stroke-linecap:round"
           d="m 73.286384,52.795907 -0.509672,-2.718252 2.038689,-0.509672 0.509672,0.339782 0.254836,2.973087 z"
           id="path14764" /><path
           style="fill:#333aa7;fill-opacity:1;stroke:none;stroke-width:0.991054;stroke-linecap:round"
           d="m 72.351985,50.417437 4.247271,-1.359126 0.339782,0.679563 0.16989,1.189235 -4.671997,1.189235 z"
           id="path14766" /><path
           style="fill:#333aa7;fill-opacity:1;stroke:none;stroke-width:0.991054;stroke-linecap:round"
           d="m 76.854093,48.633582 v 2.038691 h 1.274179 l 0.934399,-1.189235 -0.934399,-1.274183 z"
           id="path14768" /><path
           style="fill:#333aa7;fill-opacity:1;stroke:none;stroke-width:0.991054;stroke-linecap:round"
           d="m 78.128272,48.71853 4.671998,1.10429 1.698907,2.54836 0.339781,2.123637 -0.594617,2.208579 -2.803197,1.783853 -2.038691,0.934399 -0.849454,-1.274181 1.953743,-0.934399 1.52902,-0.934399 1.189235,-1.189235 -0.08495,-1.783855 -0.934399,-1.529016 -2.123637,-1.189236 -1.953744,0.254837 z"
           id="path14770" /><path
           style="fill:#333aa7;fill-opacity:1;stroke:none;stroke-width:0.991054;stroke-linecap:round"
           d="m 82.80027,49.99271 2.718252,-0.254836 0.849453,2.463416 -1.529017,0.934399 -0.764507,-0.254837 z"
           id="path14772" /><path
           style="fill:#333aa7;fill-opacity:1;stroke:none;stroke-width:0.991054;stroke-linecap:round"
           d="m 85.433577,52.710962 0.594617,5.011778 0.594617,0.08495 -0.339782,-5.35156 z"
           id="path14774" /><ellipse
           style="fill:#333aa7;fill-opacity:1;stroke:none;stroke-width:0.991054;stroke-linecap:round"
           id="path15080"
           cx="81.535446"
           cy="77.571251"
           rx="2.1450171"
           ry="2.091392" /></g><g
         id="g38429"><path
           id="rect17478"
           style="fill:#343ba7;fill-opacity:1;stroke:none;stroke-width:0.991054;stroke-linecap:round"
           d="M 67.361933 7.4106918 L 67.361933 41.033467 L 92.29411 41.033467 L 92.29411 7.4106918 L 67.361933 7.4106918 z M 68.898357 8.809201 L 90.757685 8.809201 L 90.757685 39.635441 L 68.898357 39.635441 L 68.898357 8.809201 z " /><path
           style="opacity:1;fill:#242a7a;fill-opacity:1;stroke:none;stroke-width:0.991054;stroke-linecap:round"
           d="m 69.06422,29.119347 3.134343,-2.238817 -0.985078,-6.537344 0.447763,-0.268658 2.417923,6.537345 10.835873,-0.985079 1.522395,-7.074661 1.970159,-1.164185 1.253736,2.059711 v 7.701531 l 1.074632,3.403001 -21.313534,2.328368 z"
           id="path58876" /><path
           id="path24166"
           style="fill:#242a7a;fill-opacity:1;stroke:none;stroke-width:0.991054;stroke-linecap:round"
           d="m 79.828021,27.700774 c -3.932415,0.0023 -7.761277,0.775402 -10.929664,2.525458 v 9.409209 H 90.757685 V 30.21849 C 87.588036,28.471192 83.759282,27.70088 79.828021,27.700774 Z"
           sodipodi:nodetypes="cccccc" /><g
           id="g23846"
           transform="matrix(0.16672158,0,0,0.16672158,50.398746,29.462051)"
           style="fill:#1c1c2b;fill-opacity:1;stroke-width:4.93769"><path
             id="path23838"
             style="fill:#343ba7;fill-opacity:1;stroke:none;stroke-width:5.94434;stroke-linecap:round"
             inkscape:transform-center-x="4.359844"
             inkscape:transform-center-y="12.823242"
             d="M 186.02035 -33.810995 L 186.02035 -31.663128 L 182.26159 -23.431573 L 176.1837 -19.980473 L 174.38414 -21.780037 L 171.94602 -22.267661 L 171.8038 -22.49696 L 172.05922 -23.344497 L 171.04333 -24.020785 L 171.4671 -25.379166 L 171.21168 -27.498007 L 167.65028 -27.82309 L 167.65028 -30.548559 L 164.09179 -32.670303 L 166.04229 -29.701022 L 166.41091 -27.77665 L 163.83637 -25.083108 L 160.86999 -24.871224 L 156.80065 -25.123744 L 160.02245 -22.668209 L 163.27328 -22.668209 L 164.00762 -19.783101 L 165.61562 -19.867274 L 167.65028 -18.595969 L 168.34109 -17.484303 L 168.17274 -16.886383 L 167.94344 -16.810918 L 168.0073 -16.300074 L 164.68681 -4.5013173 L 162.65214 5.8781051 L 164.48363 8.1159503 L 166.72438 8.3220295 L 166.11195 4.4529663 L 168.55587 -3.4854343 L 169.69076 -6.0193369 L 174.4567 1.3908044 L 174.4567 1.399512 L 174.46831 1.4111221 L 175.64093 3.2310041 L 176.25336 2.8594811 L 176.55523 3.1061956 C 175.41481 3.8559784 174.50752 4.4683526 174.27965 4.6619479 C 174.38874 4.2270156 163.9429 16.59416 161.4563 19.540281 L 161.30827 19.557696 L 142.31706 34.456347 L 137.92845 39.065554 L 121.60176 48.191086 L 120.00247 51.83085 L 157.70044 36.923492 L 163.14847 35.022339 L 162.53314 45.160852 L 167.35133 55.131019 L 171.32778 55.488029 L 176.50588 55.276145 L 178.90337 50.158997 L 173.05188 47.665729 L 170.57022 41.79973 L 170.41639 39.274535 L 179.72478 36.607117 L 179.13557 37.321137 L 178.12549 39.338391 L 182.76662 51.038461 L 183.7738 54.669517 L 196.8874 54.266067 L 199.71155 54.266067 L 199.71155 48.617757 L 193.45662 44.783524 L 188.61521 44.58325 L 187.40486 42.36282 L 198.5012 32.680003 L 200.71873 25.41789 L 195.26779 19.673797 L 197.26473 17.694276 L 205.31923 11.906645 L 210.03873 8.4265203 L 213.01382 8.8125559 L 214.11968 5.7532966 L 216.89449 6.8388402 L 218.54022 5.9709858 L 215.53611 2.4357127 L 210.91529 2.9175316 L 206.93013 3.6402598 C 207.03122 3.1460801 207.15033 2.5038626 207.31326 1.4807827 C 207.41733 0.82731725 207.33207 0.21778212 207.11009 -0.35070938 L 208.8487 -1.5378413 L 213.92811 0.38362895 L 218.92916 -1.9267794 L 226.60343 -1.4652782 L 229.20409 -2.7249732 L 229.73816 -6.5679137 L 225.47725 -7.9001718 L 219.97697 -10.622738 L 228.01986 -12.184296 L 230.57408 -15.864695 L 226.86756 -19.829542 L 215.35325 -20.624833 L 213.51886 -21.600081 L 210.50894 -20.735129 L 202.28319 -18.163493 L 197.0006 -9.3891661 L 196.28077 -6.5098633 C 195.6124 -6.6927697 194.79044 -6.9136415 194.55087 -7.0003897 C 193.74123 -7.2935589 188.46453 -4.3047424 183.48355 -1.2679067 L 185.44856 -2.6698253 L 182.19193 -4.2981407 L 182.14839 -4.2981407 L 179.93376 -6.7885055 L 178.32286 -14.30604 L 178.79307 -14.924278 L 179.34165 -14.764639 L 179.0572 -15.27258 L 185.12347 -23.254519 L 189.41921 -29.515261 L 190.31318 -32.200095 L 188.16532 -33.810995 L 186.02035 -33.810995 z M 168.40494 -17.37691 L 168.61683 -17.034412 L 168.53555 -17.008289 L 168.40494 -17.37691 z " /><g
             id="g23824"
             inkscape:transform-center-x="0.84676425"
             inkscape:transform-center-y="-1.8078098"
             transform="rotate(-40.349988,186.40123,24.84072)"
             style="fill:#1c1c2b;fill-opacity:1;stroke-width:4.93769" /></g><g
           id="g24624"
           style="fill:#1c1c2b;fill-opacity:1;stroke-width:1.30058"
           transform="matrix(0.72001122,0,0,0.72001122,22.723975,7.1139)" /><circle
           style="fill:#242a7a;fill-opacity:1;stroke:none;stroke-width:0.991054;stroke-linecap:round"
           id="circle25702"
           cx="78.929649"
           cy="17.623741"
           r="5.7516174" /><circle
           style="fill:#343ba7;fill-opacity:1;stroke:none;stroke-width:0.991054;stroke-linecap:round"
           id="path24974"
           cx="84.000664"
           cy="14.493487"
           r="3.2474122" /></g><g
         id="g38435"><path
           id="rect18341"
           style="fill:#242a7a;fill-opacity:1;stroke:none;stroke-width:0.991054;stroke-linecap:round"
           d="M 30.035286 7.1261508 L 30.035286 40.748442 L 54.967463 40.748442 L 54.967463 7.1261508 L 30.035286 7.1261508 z M 31.287169 8.753551 L 53.715096 8.753551 L 53.715096 39.121042 L 31.287169 39.121042 L 31.287169 8.753551 z " /><path
           style="fill:#242a7a;fill-opacity:1;stroke:none;stroke-width:0.991054;stroke-linecap:round"
           d="m 31.89643,26.005846 c 0,0 5.08144,-5.215162 6.151216,-5.883773 1.069779,-0.66861 7.755884,2.941887 7.755884,2.941887 l 7.622161,-1.738387 0.534887,17.785041 -22.331594,-0.133721 z"
           id="path26793" /><path
           id="path27009"
           style="fill:#242a7a;fill-opacity:1;stroke:none;stroke-width:0.991054;stroke-linecap:round"
           d="m 38.67118,11.926483 a 2.6521345,2.6521345 0 0 0 -0.76797,0.114203 2.6521345,2.6521345 0 0 1 1.881938,2.538125 2.6521345,2.6521345 0 0 1 -1.882906,2.537157 2.6521345,2.6521345 0 0 0 0.768938,0.114687 2.6521345,2.6521345 0 0 0 2.652328,-2.651844 2.6521345,2.6521345 0 0 0 -2.652328,-2.652328 z" /></g><g
         id="g15740"
         transform="translate(-2.4776356)"><rect
           style="fill:#333aa7;fill-opacity:1;stroke:none;stroke-width:0.991051;stroke-linecap:round"
           id="rect5880"
           width="34.134068"
           height="2.493813"
           x="10.069539"
           y="42.394821" /><rect
           style="fill:#333aa7;fill-opacity:1;stroke:none;stroke-width:0.991051;stroke-linecap:round"
           id="rect5892"
           width="2.1820862"
           height="65.462593"
           x="26.594208"
           y="26.648064" /><rect
           style="opacity:1;fill:#242a7a;fill-opacity:1;stroke:none;stroke-width:0.991054;stroke-linecap:round"
           id="rect40283"
           width="12.877759"
           height="11.141432"
           x="12.556084"
           y="47.157169" /><rect
           style="fill:#333aa7;fill-opacity:1;stroke:none;stroke-width:0.991051;stroke-linecap:round"
           id="rect5882"
           width="34.134068"
           height="2.493813"
           x="10.069539"
           y="58.269825" /><rect
           style="fill:#333aa7;fill-opacity:1;stroke:none;stroke-width:0.991051;stroke-linecap:round"
           id="rect5884"
           width="34.134068"
           height="2.493813"
           x="10.069539"
           y="74.144821" /><rect
           style="fill:#242a7a;fill-opacity:1;stroke:none;stroke-width:0.991054;stroke-linecap:round"
           id="rect13956"
           width="3.2074959"
           height="7.9831004"
           x="19.859873"
           y="77.837151" /><rect
           style="fill:#242a7a;fill-opacity:1;stroke:none;stroke-width:0.991054;stroke-linecap:round"
           id="rect13960"
           width="5.7734928"
           height="4.2053838"
           x="31.335579"
           y="78.621208" /><rect
           style="fill:#242a7a;fill-opacity:1;stroke:none;stroke-width:0.991054;stroke-linecap:round"
           id="rect13962"
           width="1.9957751"
           height="1.9957751"
           x="38.891014"
           y="79.47654" /><path
           id="rect3649"
           style="fill:#333aa7;fill-opacity:1;stroke:none;stroke-width:0.991051;stroke-linecap:round"
           d="M 8.6589027,25.765868 V 93.67645 H 44.21177 V 25.765868 Z m 1.8701703,2.026233 H 42.3416 V 91.650217 H 10.529073 Z" /><path
           id="path5948"
           style="fill:#333aa7;fill-opacity:1;stroke:none;stroke-width:0.991051;stroke-linecap:round"
           d="m 14.169607,32.625517 -2.121318,10.029879 13.01936,0.09663 0.77153,-10.126514 h -0.03204 l -0.06408,0.482141 -1.071252,-0.482141 h -1.029395 l -0.599963,1.349789 -0.213424,-1.349789 h -2.737817 l -1.099158,1.157036 0.40256,-1.157036 h -3.010152 l -0.285771,1.543059 -0.192753,-1.543059 z" /><rect
           style="fill:#333aa7;fill-opacity:1;stroke:none;stroke-width:0.991051;stroke-linecap:round"
           id="rect6800"
           width="11.009642"
           height="1.0557191"
           x="11.73193"
           y="57.207832" /><rect
           style="fill:#333aa7;fill-opacity:1;stroke:none;stroke-width:0.991051;stroke-linecap:round"
           id="rect6802"
           width="11.612909"
           height="1.8098042"
           x="13.541733"
           y="55.129986" /><rect
           style="fill:#333aa7;fill-opacity:1;stroke:none;stroke-width:0.991051;stroke-linecap:round"
           id="rect6804"
           width="3.5441997"
           height="3.1671574"
           x="15.351538"
           y="51.510368" /><g
           id="g13432"
           transform="matrix(0.93642929,0,0,0.93642929,1.5656609,0.94219894)"><rect
             style="fill:#333aa7;fill-opacity:1;stroke:none;stroke-width:1.05833;stroke-linecap:round"
             id="rect13105"
             width="15.679992"
             height="11.721936"
             x="10.351839"
             y="65.688507"
             rx="0.72592556"
             ry="0.73722869" /><rect
             style="fill:#242a7a;fill-opacity:1;stroke:none;stroke-width:1.05833;stroke-linecap:round"
             id="rect13107"
             width="5.2520361"
             height="3.120775"
             x="15.4897"
             y="68.124237"
             rx="0.83728111"
             ry="0.83728111" /></g><g
           id="g13493"
           transform="matrix(0.93642929,0,0,0.93642929,19.757607,18.570761)"><rect
             style="fill:#333aa7;fill-opacity:1;stroke:none;stroke-width:1.05833;stroke-linecap:round"
             id="rect13489"
             width="15.679992"
             height="11.721936"
             x="10.351839"
             y="65.688507"
             rx="0.72592556"
             ry="0.73722869" /><rect
             style="fill:#242a7a;fill-opacity:1;stroke:none;stroke-width:1.05833;stroke-linecap:round"
             id="rect13491"
             width="5.2520361"
             height="3.120775"
             x="15.4897"
             y="68.124237"
             rx="0.83728111"
             ry="0.83728111" /></g><g
           id="g13702"
           transform="matrix(0.93642929,0,0,0.93642929,19.757607,0.94561721)"><rect
             style="fill:#333aa7;fill-opacity:1;stroke:none;stroke-width:1.05833;stroke-linecap:round"
             id="rect13698"
             width="15.679992"
             height="11.721936"
             x="10.351839"
             y="65.688507"
             rx="0.72592556"
             ry="0.73722869" /><rect
             style="fill:#242a7a;fill-opacity:1;stroke:none;stroke-width:1.05833;stroke-linecap:round"
             id="rect13700"
             width="5.2520361"
             height="3.120775"
             x="15.4897"
             y="68.124237"
             rx="0.83728111"
             ry="0.83728111" /></g><rect
           style="fill:#242a7a;fill-opacity:1;stroke:none;stroke-width:0.991054;stroke-linecap:round"
           id="rect13958"
           width="2.6372743"
           height="4.9181604"
           x="13.658713"
           y="78.050987" /><g
           id="g13870"
           transform="matrix(0.93642929,0,0,0.93642929,1.5656587,18.642037)"><rect
             style="fill:#333aa7;fill-opacity:1;stroke:none;stroke-width:1.05833;stroke-linecap:round"
             id="rect13866"
             width="15.679992"
             height="11.721936"
             x="10.351839"
             y="65.688507"
             rx="0.72592556"
             ry="0.73722869" /><rect
             style="fill:#242a7a;fill-opacity:1;stroke:none;stroke-width:1.05833;stroke-linecap:round"
             id="rect13868"
             width="5.2520361"
             height="3.120775"
             x="15.4897"
             y="68.124237"
             rx="0.83728111"
             ry="0.83728111" /></g><rect
           style="fill:#333aa7;fill-opacity:1;stroke:none;stroke-width:0.991054;stroke-linecap:round"
           id="rect32169"
           width="4.962357"
           height="5.8484921"
           x="29.480762"
           y="51.923046" /><rect
           style="fill:#333aa7;fill-opacity:1;stroke:none;stroke-width:0.991054;stroke-linecap:round"
           id="rect32171"
           width="7.5026112"
           height="8.0933685"
           x="34.797569"
           y="49.619091" /><rect
           style="fill:#333aa7;fill-opacity:1;stroke:none;stroke-width:0.991054;stroke-linecap:round"
           id="rect32173"
           width="2.2448759"
           height="2.5402541"
           x="30.662273"
           y="49.08741" /><rect
           style="fill:#333aa7;fill-opacity:1;stroke:none;stroke-width:0.991054;stroke-linecap:round"
           id="rect34359"
           width="8.2705946"
           height="3.0128596"
           x="29.480762"
           y="38.631016" /><rect
           style="fill:#333aa7;fill-opacity:1;stroke:none;stroke-width:0.991054;stroke-linecap:round"
           id="rect34361"
           width="8.2705946"
           height="3.0128596"
           x="30.780428"
           y="35.204628" /><rect
           style="fill:#333aa7;fill-opacity:1;stroke:none;stroke-width:0.991054;stroke-linecap:round"
           id="rect34363"
           width="8.2705946"
           height="3.0128596"
           x="29.539839"
           y="31.778238" /></g><path
         style="fill:#333aa7;fill-opacity:1;stroke:none;stroke-width:0.991054;stroke-linecap:round"
         d="m 9.6273615,13.290308 c 0,0 2.4257565,-4.8515125 4.7706545,-3.4769173 2.344898,1.3745953 1.69803,2.5066153 1.69803,2.5066153 l -1e-6,3.800351 c 0,0 -0.485151,-4.528078 -0.970302,-3.962069 -0.485151,0.56601 -5.4983815,1.13202 -5.4983815,1.13202 z"
         id="path14608"
         sodipodi:nodetypes="csccsc" /><path
         style="fill:#333aa7;fill-opacity:1;stroke:none;stroke-width:0.991054;stroke-linecap:round"
         d="m 16.500338,13.775459 c 0,0 -0.56601,-14.63539619 12.371357,-6.872976 0,0 -9.622166,1.9406053 -10.51161,2.5066151 -0.889444,0.5660098 -0.889444,0.5660098 -0.889444,0.5660098 z"
         id="path14604" /><path
         style="fill:#333aa7;fill-opacity:1;stroke:none;stroke-width:0.991054;stroke-linecap:round"
         d="m 15.691752,14.341469 c 0,0 2.021464,-8.4901469 -3.153483,-10.1073178 C 7.3633224,2.6169802 4.048122,5.689605 4.048122,5.689605 c 0,0 4.44722,3.1534832 6.872976,3.0726246 0,0 4.204644,-3.0726253 4.770654,5.5792394 z"
         id="path14606" /><path
         style="fill:#242a7a;fill-opacity:1;stroke:none;stroke-width:0.991055;stroke-linecap:round"
         d="M 12.260576,25.059735 C 11.30123,22.199954 10.183681,20.052087 9.9217982,14.053724 l 11.5563108,0.137575 c -0.414782,3.805903 -0.378668,7.686954 -2.889078,11.143586 L 12.810876,25.19731 Z"
         id="path14375"
         sodipodi:nodetypes="cccccc" /></g><g
       id="g4098"
       transform="matrix(0.81394182,0,0,0.81730231,19.379908,30.942881)"
       style="stroke-width:1.22606"><rect
         style="fill:#e25563;fill-opacity:1;stroke:none;stroke-width:0.122606;stroke-linecap:round"
         id="rect515"
         width="15.294061"
         height="5.6006417"
         x="-48.288601"
         y="-11.392169"
         ry="2.8003209"
         rx="2.9080255"
         transform="scale(-1,1)" /><rect
         style="fill:#e25563;fill-opacity:1;stroke:none;stroke-width:0.122606;stroke-linecap:round"
         id="rect2120"
         width="18.74061"
         height="5.6006417"
         x="-50.011875"
         y="-8.2171659"
         ry="2.8003209"
         rx="3.5633552"
         transform="scale(-1,1)" /><ellipse
         style="mix-blend-mode:normal;fill:#000000;fill-opacity:0.072093;stroke-width:3.24395;stroke-linecap:round"
         id="path7853"
         cx="43.254681"
         cy="83.761459"
         rx="19.67112"
         ry="2.2014" /><path
         id="path3942"
         style="fill:#535d6c;fill-opacity:1;stroke-width:0.648791;stroke-linecap:round"
         d="m 34.584242,54.487389 c -0.999682,-0.168955 -2.019946,-0.136835 -3.030543,0.200069 -0.955164,0.373851 -0.905805,3.950599 -1.456208,4.880962 0.906961,6.919366 0.608865,9.152154 2.081092,15.948411 0.114087,0.805574 0.549947,4.01861 1.124349,4.392858 0.74039,0.482395 1.887032,-0.09799 2.695382,0.05506 1.74984,0.87253 1.221151,-3.873455 1.745975,-5.021535 0.703563,-2.56644 1.093672,-3.114172 1.204074,-5.763762 0.146096,-2.998024 1.184315,-6.197637 1.543586,-8.983797 0.145809,-1.13075 0.321775,-3.14054 0.337337,-4.357466 -1.406607,-0.922387 -4.578905,-1.069238 -6.245044,-1.350803 z"
         sodipodi:nodetypes="scccscccscs"
         inkscape:transform-center-y="-11.745543"
         inkscape:transform-center-x="-0.6753656" /><path
         style="fill:#535d6c;fill-opacity:1;stroke-width:0.648791;stroke-linecap:round"
         d="m 53.176113,55.386863 c 0.253695,2.29263 0.08829,3.465517 -0.330727,5.867247 -0.563736,4.043109 -1.106476,8.612848 -1.658613,12.946959 -0.0269,0.211119 -0.361937,0.465515 -0.38888,0.675428 -0.184217,1.435222 -0.06152,2.796352 -0.249269,4.142905 -1.16897,1.06454 -2.337941,2.12909 -3.506914,3.19362 -0.716921,-2.111861 -1.344767,-4.637548 -1.85189,-6.809814 -0.163371,-0.699798 -0.51146,-0.970045 -0.588316,-1.691136 L 43.242058,62.207411 c 0.707626,-2.090354 0.739437,-4.221412 1.505411,-6.286274 1.134821,-1.934972 6.004959,-4.231817 7.894672,-3.134828 0.459675,0.200399 0.101883,2.346641 0.533972,2.600554 z"
         id="path16645"
         sodipodi:nodetypes="ccssccsccccc"
         inkscape:transform-center-x="-0.71390547"
         inkscape:transform-center-y="-10.707193" /><g
         id="use2717"
         transform="matrix(-1,0,0,1,125.28256,-0.05468271)"
         style="stroke-width:1.22606"><path
           style="fill:#1c1f24;fill-opacity:1;stroke:none;stroke-width:0.122606;stroke-linecap:round"
           d="m 68.050869,82.758267 c -0.192329,-0.46941 0.412534,-1.768357 0.818582,-2.394317 0.406048,-0.625961 0.614247,-1.01366 1.42502,-1.325762 0.810773,-0.312103 2.569686,-0.04374 3.265917,0.04706 0.696231,0.09081 -0.31934,-0.879311 0.556033,-0.736358 0.875368,0.142957 3.957381,1.834996 4.723921,1.310266 0.76654,-0.52473 -0.515026,-1.146623 0.344347,-1.147816 0.859373,-0.0012 1.505578,2.860097 1.147816,3.787794 -0.357762,0.927697 -0.772397,0.770087 -1.721726,1.033036 -0.949329,0.262949 -2.218167,0.04675 -3.902575,0 -1.684408,-0.04675 -5.115555,-0.05683 -6.198209,-0.344344 -1.082654,-0.287514 -0.266797,0.239847 -0.459126,-0.229563 z"
           id="path2719"
           sodipodi:nodetypes="zzzzzzzzzzzzz" /><path
           style="fill:#373e48;fill-opacity:1;stroke:none;stroke-width:0.122606;stroke-linecap:round"
           d="m 68.050869,83.676519 c 0.171205,-0.519664 1.128684,-2.620848 1.951286,-2.639978 0.822602,-0.01913 1.467176,0.433517 2.289778,0.414385 0.822602,-0.01913 1.949984,1.577354 2.365674,1.536904 0.41569,-0.04045 4.229432,-0.08892 4.630714,-0.176962 0.401282,-0.08804 0.93463,-0.960656 1.044184,-0.626512 0.109554,0.334144 1.014458,1.463126 0.691104,2.000655 -0.323354,0.537529 -1.652986,0.369058 -1.936873,0.394318 -0.283887,0.02526 -10.768048,-0.09934 -10.806308,-0.214118 -0.03826,-0.114781 -0.191304,-0.573912 -0.229559,-0.688689 -0.03825,-0.114778 -0.171205,0.519661 0,-3e-6 z"
           id="path2721"
           sodipodi:nodetypes="zzzzzzzzzzz" /></g><g
         id="g2729"
         transform="matrix(-0.81460179,0,0,1,96.66975,-0.05468271)"
         style="stroke-width:1.35844"><path
           style="fill:#1c1f24;fill-opacity:1;stroke:none;stroke-width:0.135844;stroke-linecap:round"
           d="m 68.050869,82.758267 c -0.192329,-0.46941 0.412534,-1.768357 0.818582,-2.394317 0.406048,-0.625961 0.614247,-1.01366 1.42502,-1.325762 0.810773,-0.312103 2.273247,-0.707811 2.969478,-0.617011 0.696231,0.09081 0.339319,0.750681 1.214692,0.893634 0.875368,0.142957 2.631732,0.748335 3.398272,0.223605 0.76654,-0.52473 0.448403,-1.025883 1.307776,-1.027076 0.859373,-0.0012 1.505578,2.860097 1.147816,3.787794 -0.357762,0.927697 -0.772397,0.770087 -1.721726,1.033036 -0.949329,0.262949 -2.218167,0.04675 -3.902575,0 -1.684408,-0.04675 -5.115555,-0.05683 -6.198209,-0.344344 -1.082654,-0.287514 -0.266797,0.239847 -0.459126,-0.229563 z"
           id="path2725"
           sodipodi:nodetypes="zzzzzzzzzzzzz" /><path
           style="fill:#373e48;fill-opacity:1;stroke:none;stroke-width:0.135844;stroke-linecap:round"
           d="m 68.050869,83.676519 c 0.171205,-0.519664 1.128684,-2.620848 1.951286,-2.639978 0.822602,-0.01913 1.467176,0.433517 2.289778,0.414385 0.822602,-0.01913 1.949984,1.577354 2.365674,1.536904 0.41569,-0.04045 4.229432,-0.08892 4.630714,-0.176962 0.401282,-0.08804 0.93463,-0.960656 1.044184,-0.626512 0.109554,0.334144 1.014458,1.463126 0.691104,2.000655 -0.323354,0.537529 -1.457212,0.251594 -1.741099,0.276854 -0.283887,0.02526 -10.963822,0.01813 -11.002082,-0.09665 -0.03826,-0.114781 -0.191304,-0.573912 -0.229559,-0.688689 -0.03825,-0.114778 -0.171205,0.519661 0,-3e-6 z"
           id="path2727"
           sodipodi:nodetypes="zzzzzzzzzzz" /></g><path
         style="fill:#535d6c;fill-opacity:1;stroke-width:0.648791;stroke-linecap:round"
         d="m 51.362775,27.890363 c 0.796391,2.455061 2.229927,2.976763 1.533707,5.626108 0.145091,6.1037 0.736118,14.01284 0.06207,20.116547 -1.562709,1.25239 -7.016166,1.439114 -8.57888,2.691494 -1.542409,-2.933616 -1.355967,-4.705469 -2.022124,-7.875126 l -3.350433,-12.25917 c 0.837086,-2.32026 1.540171,-4.67634 2.461179,-6.974165 1.449168,-2.189779 5.228593,-2.975872 7.967002,-1.956118 0.661118,0.176272 1.301103,0.393929 1.927482,0.63043 z"
         id="path1109"
         sodipodi:nodetypes="ccccccccc"
         inkscape:transform-center-x="-2.2981378"
         inkscape:transform-center-y="-11.497387" /><path
         id="path1111"
         style="fill:#535d6c;fill-opacity:1;stroke-width:0.64879;stroke-linecap:round"
         d="m 34.04972,26.848823 c 1.51383,-0.202005 3.075674,-0.186096 4.647844,0.160874 1.490501,0.388116 2.57771,4.173044 3.495471,5.172855 -0.816207,7.528804 -0.01728,16.171798 -1.707477,23.577456 -0.247225,2.006711 -4.327363,-1.547384 -6.49872,-1.225636 -2.602301,0.979776 -2.369396,-0.217002 -3.265998,-1.453651 -1.286561,-2.773156 -1.743638,-7.326029 -2.130561,-10.20048 -0.660983,-4.571895 -1.096397,-9.149019 -1.525934,-13.724454 2.07366,-1.027526 4.462317,-1.970322 6.985374,-2.306968 z"
         sodipodi:nodetypes="scccccccss"
         inkscape:transform-center-y="-12.686856"
         inkscape:transform-center-x="-0.91349815" /><path
         style="fill:#e25563;fill-opacity:1;stroke-width:0.648791;stroke-linecap:round"
         d="m 52.934476,17.493578 c 0,0 1.604977,-22.0621767 -0.131501,-22.8339443 -0.29293,-0.1301908 -2.022444,-2.9107413 -3.183675,-3.1158785 -4.069428,-0.7188843 -11.527588,-1.0171953 -16.969005,-0.5638868 -2.210437,0.184145 -5.109898,2.2337515 -5.526904,2.5117565 -1.736479,1.1576546 0.910063,21.2719021 1.295943,23.7801511 0.38589,2.508248 -1.682355,14.509252 -1.682355,14.509252 0,0 18.91751,2.104999 26.728405,-1.142493 -0.462261,-3.927363 0.207566,-11.944938 -0.530908,-13.144957 z"
         id="path4167"
         sodipodi:nodetypes="csssssccc" /><path
         style="fill:#c64a57;fill-opacity:1;stroke:none;stroke-width:0.324395;stroke-linecap:round;stroke-dasharray:none"
         d="m 27.853945,1.3067191 4.011731,11.5014439 -1.21568,15.496683 -0.729405,3.389901 H 26.638262 L 28.34021,22.251453 27.002966,6.8758391 Z"
         id="path49464" /><g
         id="g42641"
         inkscape:transform-center-x="-2.6330023"
         inkscape:transform-center-y="18.787659"
         transform="matrix(0.98581387,-0.17138616,0.13497728,0.99092414,0.83049191,8.865888)"
         style="stroke-width:1.22606"><path
           style="opacity:1;fill:#e25563;fill-opacity:1;stroke-width:3.24395;stroke-linecap:round"
           d="m 49.183939,-8.8398842 c 0,0 2.830533,1.0671273 4.329399,2.8602129 1.498866,1.7930855 2.138118,4.1169009 2.644928,7.4125006 0.50681,3.2955997 1.825992,12.5447937 1.825992,12.5447937 l -3.778082,1.033069 -3.32393,-4.885376 -1.8527,-12.5940791 z"
           id="path39693"
           sodipodi:nodetypes="czzccccc" /><g
           id="g41909"
           inkscape:transform-center-x="-2.0033297"
           inkscape:transform-center-y="-11.641923"
           transform="matrix(-0.95299767,-0.33010964,0.33403132,-0.93361513,106.69251,41.311375)"
           style="stroke-width:1.22606"><path
             style="opacity:1;fill:#e25563;fill-opacity:1;stroke-width:3.24395;stroke-linecap:round"
             d="m 54.050861,9.7590032 c 0,0 -1.795011,4.9813338 -1.908248,8.4577418 -0.113237,3.476409 1.499979,11.616661 1.499979,11.616661 l 4.159581,-0.397469 1.511952,-9.451083 2.18826,-4.925173 -4.826866,-6.5307338 z"
             id="path40451"
             inkscape:transform-center-x="0.28044017"
             inkscape:transform-center-y="8.2729851"
             sodipodi:nodetypes="czcccccc" /><path
             style="fill:#ffd9bf;fill-opacity:1;stroke:none;stroke-width:0.324395;stroke-linecap:round;stroke-dasharray:none;stroke-opacity:1"
             d="m 57.530988,28.721381 0.25713,1.602091 c 0,0 1.11682,0.794369 1.614092,1.387644 0.497272,0.593276 1.277009,2.161543 1.277009,2.161543 L 60.363816,34.37806 59.030638,33.320383 58.459843,33.20559 c 0,0 -0.09623,0.459532 0.0073,1.576348 0.103544,1.116816 0.229015,4.466375 0.229015,4.466375 l -0.35787,0.36866 -0.477385,-0.403884 -0.473858,-3.849221 -0.200521,0.05415 -0.01407,4.513184 -0.337219,0.32427 -0.427976,-0.359627 -0.282171,-3.478323 -0.105919,-0.63176 -0.310924,-0.0361 -0.53932,3.952817 -0.429331,0.270915 -0.335032,-0.211643 0.248119,-4.057236 -0.223905,-0.142149 -0.776068,2.769136 -0.582982,-0.0677 0.348611,-3.077071 c 0,0 -0.130336,-2.780617 0.02814,-3.636137 0.158473,-0.85552 0.563898,-1.495799 0.563898,-1.495799 l 0.229456,-1.87045 1.957047,-0.430909 z"
             id="path65258"
             sodipodi:nodetypes="cczcccczccccccccccccccccccczcccc"
             inkscape:transform-center-x="-1.5537779"
             inkscape:transform-center-y="-4.2230609" /></g><path
           id="path47162"
           style="opacity:1;fill:#e25563;stroke-width:0.324495;stroke-linecap:round"
           transform="matrix(0.98537054,0.17042564,-0.13565401,0.99075627,0,0)"
           d="m 59.90248,4.2085454 c -0.52855,1.1310164 -1.591173,1.9176824 -2.738986,1.9176822 -1.147812,-3e-7 -2.078298,-0.9168701 -2.078298,-2.0478861 0,-1.131016 0.930486,-2.0478858 2.078298,-2.0478861 1.147813,-2e-7 3.219081,1.1507614 2.738986,2.17809 z"
           sodipodi:nodetypes="sssss" /></g><path
         style="opacity:1;fill:#ffd9bf;fill-opacity:1;stroke-width:3.24395;stroke-linecap:round"
         d="m 36.553588,-12.966926 -0.192245,2.871794 2.30692,1.5316229 4.133233,0.4786323 1.345704,-0.7658112 -0.09612,-2.584615 z"
         id="path42736"
         sodipodi:nodetypes="ccccccc" /><g
         id="g409"
         transform="rotate(-2.5035691,-727.73021,934.84366)"
         style="stroke-width:1.22606"><rect
           style="fill:#483737;fill-opacity:1;stroke-width:0.648791;stroke-linecap:round"
           id="rect5342"
           width="2.496511"
           height="5.6171494"
           x="85.26133"
           y="12.498936"
           rx="1.0096776"
           ry="1.3883067" /><path
           id="path4221"
           style="fill:#ffd9bf;fill-opacity:1;stroke-width:0.648791;stroke-linecap:round"
           d="m 87.020409,17.890897 c 0,4.057806 -1.531886,6.775182 -5.402381,6.775182 -3.673419,0 -5.40238,-2.717377 -5.40238,-6.775182 0,-4.057804 1.040213,-7.244753 5.40238,-7.347307 4.560261,-0.107211 5.402381,3.289502 5.402381,7.347307 z"
           sodipodi:nodetypes="sssss" /><path
           id="rect647"
           style="fill:#483737;stroke-width:0.648791;stroke-linecap:round"
           d="M 78.822398,8.6980178 C 81.716613,8.8657134 85.50922,7.5880839 87.505044,7.9081342 89.500869,8.2281846 87.907,12.79493 85.955674,12.910731 h -7.133276 c -1.259442,0 -2.273361,-0.891153 -2.273361,-1.998102 v -0.21651 c 0,-1.1069482 1.016489,-2.0709263 2.273361,-1.9981012 z"
           sodipodi:nodetypes="szcssss" /><rect
           style="fill:#483737;fill-opacity:1;stroke-width:0.648791;stroke-linecap:round"
           id="rect5214"
           width="2.496511"
           height="6.3973093"
           x="75.615196"
           y="11.818504"
           rx="1.0096776"
           ry="1.581127" /><rect
           style="fill:#ffd9bf;fill-opacity:1;stroke-width:0.648791;stroke-linecap:round"
           id="rect5345"
           width="2.028415"
           height="4.3688941"
           x="75.303131"
           y="15.092828"
           rx="2.4805279"
           ry="3.9196229" /><circle
           style="fill:#241c1c;fill-opacity:1;stroke-width:0.648791;stroke-linecap:round"
           id="path5520"
           cx="81.595558"
           cy="17.351255"
           r="0.3905766" /><path
           style="fill:#483737;fill-opacity:1;stroke-width:0.648791;stroke-linecap:round"
           d="m 76.61722,21.044801 c 0,0 1.263398,-1.329893 2.194323,-1.130409 0.930923,0.199485 1.455267,2.12402 1.987224,2.12402 0.531958,0 1.220962,-1.411154 1.795355,-1.196903 0.598451,0.223225 3.735119,0.172485 3.868111,0.203292 0.471601,0.109244 0.398965,1.196903 0.398965,1.196903 0,0 -1.134215,2.859269 -1.666173,3.258236 -0.531956,0.398968 -3.495404,0.388445 -3.995919,0.465463 -0.827164,0.127281 -5.342272,-4.480806 -4.581886,-4.920602 z"
           id="path7933"
           sodipodi:nodetypes="cszsscssc" /><rect
           style="fill:#634b4b;fill-opacity:1;stroke-width:0.64889;stroke-linecap:round"
           id="rect14429"
           width="2.134635"
           height="0.5133366"
           x="83.503838"
           y="22.479269"
           rx="0.2134635"
           ry="0.2566683"
           transform="matrix(0.99678408,-0.0801342,0.05533343,0.99846793,0,0)" /><path
           style="fill:#ffd9bf;fill-opacity:1;stroke-width:0.648791;stroke-linecap:round"
           d="m 82.114688,23.179529 c 0,0 0.243735,-2.004867 0.937567,-1.884874 0.654302,0.113157 2.42341,0.08723 2.804297,0.251817 0.602405,0.260316 -0.229263,1.948862 -0.570285,1.993976 -0.341023,0.04511 -0.852554,0.406035 -0.895183,0.04511 -0.04262,-0.360919 0.383651,-0.279564 0.08526,-0.369793 -0.298395,-0.09023 -1.125446,-0.574277 -1.125446,-0.168248 0,0.406034 0.341023,-0.03624 -0.170512,0.189335 -0.511532,0.225574 -1.150949,0.270689 -1.150949,0 0,-0.27069 0.08526,-0.05733 0.08526,-0.05733 z"
           id="path14435"
           sodipodi:nodetypes="csssssssscc" /><path
           style="opacity:1;fill:#ffbcbc;fill-opacity:1;stroke:none;stroke-width:0.324395;stroke-linecap:round;stroke-dasharray:none"
           d="m 85.642718,21.837124 -0.122436,0.330478 -1.265187,0.354644 -1.448841,-0.487634 0.16973,-0.311345 0.646347,0.09101 0.653172,-0.03859 0.721455,0.113778 z"
           id="path17981"
           sodipodi:nodetypes="ccccccccc" /><path
           id="path24683"
           style="fill:#cfab93;fill-opacity:1;stroke:none;stroke-width:0.324395;stroke-linecap:round;stroke-dasharray:none"
           d="m 84.235436,17.045652 1.160238,2.448221 -0.106183,0.310884 0.02947,2.55e-4 -0.0414,0.03595 -0.01777,0.05147 -0.03868,-0.0027 -0.198337,0.170816 -0.695423,-0.0066 -0.330095,0.06109 -0.310354,-0.165644 0.377309,-0.277305 0.399206,0.132803 0.396209,2.54e-4 0.177438,-0.260699 -0.906095,-2.262792 z" /><use
           x="0"
           y="0"
           xlink:href="#rect14429"
           id="use35559"
           transform="matrix(-1,0,0,1,166.72851,-0.07252989)"
           style="stroke-width:1.22606" /><rect
           style="opacity:1;fill:#483737;fill-opacity:1;stroke:none;stroke-width:0.324395;stroke-linecap:round;stroke-dasharray:none"
           id="rect42602"
           width="2.7775736"
           height="2.5557561"
           x="-78.872025"
           y="11.783834"
           transform="scale(-1,1)"
           rx="1.0531088"
           ry="0.95542276" /><circle
           style="fill:#241c1c;fill-opacity:1;stroke-width:0.648791;stroke-linecap:round"
           id="circle1224"
           cx="85.780228"
           cy="17.384306"
           r="0.3905766" /></g><rect
         style="fill:#f4e3d7;fill-opacity:1;stroke:none;stroke-width:0.122606;stroke-linecap:round"
         id="rect2174"
         width="1.0770465"
         height="7.754735"
         x="-45.944035"
         y="-6.1603665"
         ry="0.53852326"
         transform="scale(-1,1)" /><rect
         style="fill:#f4e3d7;fill-opacity:1;stroke:none;stroke-width:0.122606;stroke-linecap:round"
         id="rect2176"
         width="1.0770465"
         height="7.754735"
         x="-41.65517"
         y="-5.9907422"
         ry="0.53852326"
         transform="scale(-1,1)" /><path
         style="opacity:1;fill:#4a5360;fill-opacity:1;stroke:none;stroke-width:0.324395;stroke-linecap:round;stroke-dasharray:none;stroke-opacity:1"
         d="m 29.738241,31.997418 0.97254,6.900866 2.552923,12.712125 -0.729405,2.663492 1.959226,25.289811 -1.930527,-1.328619 -0.508835,-2.893353 -0.933652,-4.919911 -0.955847,-10.639017 0.333123,-1.480368 -0.394844,-4.876018 -0.607838,-4.237375 -1.580379,-10.775037 -0.850974,-6.658732 z"
         id="path60295"
         sodipodi:nodetypes="ccccccccccccccc" /><g
         id="g42651"
         inkscape:transform-center-x="3.7551052"
         inkscape:transform-center-y="20.490455"
         transform="matrix(-0.9942466,-0.11319421,-0.07606706,0.99712651,80.120769,5.7152424)"
         style="stroke-width:1.22606"><path
           style="opacity:1;fill:#e25563;fill-opacity:1;stroke-width:3.24395;stroke-linecap:round"
           d="m 49.183939,-8.8398842 6.638837,3.2596437 c 0,0 1.903706,4.2172663 2.470265,7.260115 0.566559,3.0428487 0.420623,10.8725495 0.420623,10.8725495 L 51.82132,15.34599 51.207747,10.89149 50.427307,7.1848288 49.02955,-2.4687631 Z"
           id="path42643"
           sodipodi:nodetypes="cczcccccc" /><g
           id="g42649"
           inkscape:transform-center-x="0.56927385"
           inkscape:transform-center-y="12.501237"
           transform="matrix(0.98988975,0.16142941,-0.16315094,0.98360715,2.4367661,-8.6661977)"
           style="stroke-width:1.22606"><path
             style="opacity:1;fill:#e25563;fill-opacity:1;stroke-width:3.24395;stroke-linecap:round"
             d="m 52.889335,11.456011 c 0,0 -1.042744,3.75575 -1.002365,6.87743 0.04038,3.12168 1.542806,12.571042 1.542806,12.571042 l 1.929642,0.164724 2.111176,0.822208 1.748798,-12.132537 -0.463175,-8.764138 -3.242224,-0.768785 z"
             id="path42645"
             inkscape:transform-center-x="0.28044017"
             inkscape:transform-center-y="8.2729851"
             sodipodi:nodetypes="czccccccc" /><path
             style="opacity:1;fill:#ffd9bf;fill-opacity:1;stroke:none;stroke-width:1.29759;stroke-linecap:round;stroke-dasharray:none"
             d="m 57.24025,31.81161 -0.115414,3.042762 -1.163154,3.355051 -0.279258,0.08485 -1.055871,1.30924 -0.417855,0.139093 -0.752902,0.677498 -0.507867,-0.07005 -0.137597,-0.20681 0.342262,-0.728579 0.71453,-1.387442 0.234671,-0.865674 -0.91513,1.824354 -0.382628,0.540735 -0.330981,0.03992 -0.237975,-0.534081 0.758963,-1.698072 0.330672,-2.22284 -0.120099,-0.824581 -0.854277,0.61128 -0.955652,0.545055 0.0051,-0.759524 2.107525,-3.211462 0.04335,-0.595309 1.87631,0.145424 z"
             id="path9254" /></g></g><path
         style="opacity:1;fill:none;fill-opacity:1;stroke:#cb4c59;stroke-width:0.324395;stroke-linecap:round;stroke-dasharray:none;stroke-opacity:1"
         d="m 33.749975,23.764806 c 2.373599,-1.319992 4.661624,-2.782023 6.078383,-5.690191 l 8.023469,-0.484272 c 0.974017,1.566105 1.723685,3.087525 4.254868,4.963782 l -0.121566,6.295529 c -5.956817,1.471395 -11.913634,1.877978 -17.870451,1.089611 z"
         id="path56758"
         sodipodi:nodetypes="ccccccc" /><path
         style="opacity:1;fill:#4a5360;fill-opacity:1;stroke:none;stroke-width:0.324395;stroke-linecap:round;stroke-dasharray:none;stroke-opacity:1"
         d="m 42.436244,39.850244 2.791476,13.864122 -0.685975,3.877717 1.509171,6.402879 1.245531,15.887821 -1.240671,-0.381432 -0.945934,-4.183565 -0.571183,-0.519764 -1.471104,-12.660493 0.476476,-0.878468 -0.433343,-5.749395 -0.171521,-3.632035 -1.392209,-6.352174 z"
         id="path59311"
         sodipodi:nodetypes="cccccccccccccc" /><path
         style="opacity:1;fill:#4a5360;fill-opacity:1;stroke:none;stroke-width:0.324395;stroke-linecap:round;stroke-dasharray:none;stroke-opacity:1"
         d="m 29.85981,37.929742 2.796055,-1.69495 0.364703,-3.632035 0.476793,-0.251576 -0.549425,4.237374 -3.209695,1.878911 z"
         id="path61879"
         sodipodi:nodetypes="ccccccc" /><path
         style="opacity:1;fill:#4a5360;fill-opacity:1;stroke:none;stroke-width:0.324395;stroke-linecap:round;stroke-dasharray:none;stroke-opacity:1"
         d="m 44.75577,32.772568 v 3.270485 l -2.606143,1.352004 0.04485,-0.400072 2.156529,-1.199537 -0.03731,-3.337347 z"
         id="path62805"
         sodipodi:nodetypes="ccccccc" /><path
         style="opacity:1;fill:#4a5360;fill-opacity:1;stroke:none;stroke-width:0.324395;stroke-linecap:round;stroke-dasharray:none;stroke-opacity:1"
         d="m 51.598772,31.424475 0.07774,4.335627 0.544193,0.387112 0.03887,-0.580667 -0.233225,-0.193554 -0.03887,-4.180784 z"
         id="path64393" /></g></g></svg>
