<?xml version="1.0" encoding="UTF-8" standalone="no"?>
<!-- Created with Inkscape (http://www.inkscape.org/) -->

<svg
   width="400"
   height="400"
   viewBox="0 0 105.83333 105.83333"
   version="1.1"
   id="svg523"
   inkscape:version="1.2 (dc2aeda, 2022-05-15)"
   sodipodi:docname="howdy.svg"
   xml:space="preserve"
   xmlns:inkscape="http://www.inkscape.org/namespaces/inkscape"
   xmlns:sodipodi="http://sodipodi.sourceforge.net/DTD/sodipodi-0.dtd"
   xmlns:xlink="http://www.w3.org/1999/xlink"
   xmlns="http://www.w3.org/2000/svg"
   xmlns:svg="http://www.w3.org/2000/svg"><sodipodi:namedview
     id="namedview525"
     pagecolor="#505050"
     bordercolor="#eeeeee"
     borderopacity="1"
     inkscape:showpageshadow="0"
     inkscape:pageopacity="0"
     inkscape:pagecheckerboard="0"
     inkscape:deskcolor="#505050"
     inkscape:document-units="px"
     showgrid="false"
     inkscape:zoom="1.3975124"
     inkscape:cx="385.68531"
     inkscape:cy="174.23817"
     inkscape:window-width="1440"
     inkscape:window-height="847"
     inkscape:window-x="0"
     inkscape:window-y="25"
     inkscape:window-maximized="1"
     inkscape:current-layer="layer1" /><defs
     id="defs520" /><g
     inkscape:label="Слой 1"
     inkscape:groupmode="layer"
     id="layer1"><g
       id="g4098"
       transform="matrix(0.90821066,0,0,0.91196035,12.590479,26.557309)"
       style="stroke-width:1.0988"><rect
         style="fill:#e25563;fill-opacity:1;stroke:none;stroke-width:0.10988;stroke-linecap:round"
         id="rect515"
         width="15.294061"
         height="5.6006417"
         x="-48.288601"
         y="-11.392169"
         ry="2.8003209"
         rx="2.9080255"
         transform="scale(-1,1)" /><rect
         style="fill:#e25563;fill-opacity:1;stroke:none;stroke-width:0.10988;stroke-linecap:round"
         id="rect2120"
         width="18.74061"
         height="5.6006417"
         x="-50.011875"
         y="-8.2171659"
         ry="2.8003209"
         rx="3.5633552"
         transform="scale(-1,1)" /><ellipse
         style="mix-blend-mode:normal;fill:#000000;fill-opacity:0.072093;stroke-width:2.90724;stroke-linecap:round"
         id="path7853"
         cx="43.254681"
         cy="83.761459"
         rx="19.67112"
         ry="2.2014" /><path
         id="path3942"
         style="fill:#535d6c;fill-opacity:1;stroke-width:0.581449;stroke-linecap:round"
         d="m 34.584242,54.487389 c -0.999682,-0.168955 -2.019946,-0.136835 -3.030543,0.200069 -0.955164,0.373851 -0.905805,3.950599 -1.456208,4.880962 0.906961,6.919366 0.608865,9.152154 2.081092,15.948411 0.114087,0.805574 0.549947,4.01861 1.124349,4.392858 0.74039,0.482395 1.887032,-0.09799 2.695382,0.05506 1.74984,0.87253 1.221151,-3.873455 1.745975,-5.021535 0.703563,-2.56644 1.093672,-3.114172 1.204074,-5.763762 0.146096,-2.998024 1.184315,-6.197637 1.543586,-8.983797 0.145809,-1.13075 0.321775,-3.14054 0.337337,-4.357466 -1.406607,-0.922387 -4.578905,-1.069238 -6.245044,-1.350803 z"
         sodipodi:nodetypes="scccscccscs"
         inkscape:transform-center-y="-11.745543"
         inkscape:transform-center-x="-0.6753656" /><path
         style="fill:#535d6c;fill-opacity:1;stroke-width:0.581449;stroke-linecap:round"
         d="m 53.176113,55.386863 c 0.253695,2.29263 0.08829,3.465517 -0.330727,5.867247 -0.563736,4.043109 -1.106476,8.612848 -1.658613,12.946959 -0.0269,0.211119 -0.361937,0.465515 -0.38888,0.675428 -0.184217,1.435222 -0.06152,2.796352 -0.249269,4.142905 -1.16897,1.06454 -2.337941,2.12909 -3.506914,3.19362 -0.716921,-2.111861 -1.344767,-4.637548 -1.85189,-6.809814 -0.163371,-0.699798 -0.51146,-0.970045 -0.588316,-1.691136 L 43.242058,62.207411 c 0.707626,-2.090354 0.739437,-4.221412 1.505411,-6.286274 1.134821,-1.934972 6.004959,-4.231817 7.894672,-3.134828 0.459675,0.200399 0.101883,2.346641 0.533972,2.600554 z"
         id="path16645"
         sodipodi:nodetypes="ccssccsccccc"
         inkscape:transform-center-x="-0.71390547"
         inkscape:transform-center-y="-10.707193" /><g
         id="use2717"
         transform="matrix(-1,0,0,1,125.28256,-0.05468271)"
         style="stroke-width:1.0988"><path
           style="fill:#1c1f24;fill-opacity:1;stroke:none;stroke-width:0.10988;stroke-linecap:round"
           d="m 68.050869,82.758267 c -0.192329,-0.46941 0.412534,-1.768357 0.818582,-2.394317 0.406048,-0.625961 0.614247,-1.01366 1.42502,-1.325762 0.810773,-0.312103 2.569686,-0.04374 3.265917,0.04706 0.696231,0.09081 -0.31934,-0.879311 0.556033,-0.736358 0.875368,0.142957 3.957381,1.834996 4.723921,1.310266 0.76654,-0.52473 -0.515026,-1.146623 0.344347,-1.147816 0.859373,-0.0012 1.505578,2.860097 1.147816,3.787794 -0.357762,0.927697 -0.772397,0.770087 -1.721726,1.033036 -0.949329,0.262949 -2.218167,0.04675 -3.902575,0 -1.684408,-0.04675 -5.115555,-0.05683 -6.198209,-0.344344 -1.082654,-0.287514 -0.266797,0.239847 -0.459126,-0.229563 z"
           id="path2719"
           sodipodi:nodetypes="zzzzzzzzzzzzz" /><path
           style="fill:#373e48;fill-opacity:1;stroke:none;stroke-width:0.10988;stroke-linecap:round"
           d="m 68.050869,83.676519 c 0.171205,-0.519664 1.128684,-2.620848 1.951286,-2.639978 0.822602,-0.01913 1.467176,0.433517 2.289778,0.414385 0.822602,-0.01913 1.949984,1.577354 2.365674,1.536904 0.41569,-0.04045 4.229432,-0.08892 4.630714,-0.176962 0.401282,-0.08804 0.93463,-0.960656 1.044184,-0.626512 0.109554,0.334144 1.014458,1.463126 0.691104,2.000655 -0.323354,0.537529 -1.652986,0.369058 -1.936873,0.394318 -0.283887,0.02526 -10.768048,-0.09934 -10.806308,-0.214118 -0.03826,-0.114781 -0.191304,-0.573912 -0.229559,-0.688689 -0.03825,-0.114778 -0.171205,0.519661 0,-3e-6 z"
           id="path2721"
           sodipodi:nodetypes="zzzzzzzzzzz" /></g><g
         id="g2729"
         transform="matrix(-0.81460179,0,0,1,96.66975,-0.05468271)"
         style="stroke-width:1.21744"><path
           style="fill:#1c1f24;fill-opacity:1;stroke:none;stroke-width:0.121744;stroke-linecap:round"
           d="m 68.050869,82.758267 c -0.192329,-0.46941 0.412534,-1.768357 0.818582,-2.394317 0.406048,-0.625961 0.614247,-1.01366 1.42502,-1.325762 0.810773,-0.312103 2.273247,-0.707811 2.969478,-0.617011 0.696231,0.09081 0.339319,0.750681 1.214692,0.893634 0.875368,0.142957 2.631732,0.748335 3.398272,0.223605 0.76654,-0.52473 0.448403,-1.025883 1.307776,-1.027076 0.859373,-0.0012 1.505578,2.860097 1.147816,3.787794 -0.357762,0.927697 -0.772397,0.770087 -1.721726,1.033036 -0.949329,0.262949 -2.218167,0.04675 -3.902575,0 -1.684408,-0.04675 -5.115555,-0.05683 -6.198209,-0.344344 -1.082654,-0.287514 -0.266797,0.239847 -0.459126,-0.229563 z"
           id="path2725"
           sodipodi:nodetypes="zzzzzzzzzzzzz" /><path
           style="fill:#373e48;fill-opacity:1;stroke:none;stroke-width:0.121744;stroke-linecap:round"
           d="m 68.050869,83.676519 c 0.171205,-0.519664 1.128684,-2.620848 1.951286,-2.639978 0.822602,-0.01913 1.467176,0.433517 2.289778,0.414385 0.822602,-0.01913 1.949984,1.577354 2.365674,1.536904 0.41569,-0.04045 4.229432,-0.08892 4.630714,-0.176962 0.401282,-0.08804 0.93463,-0.960656 1.044184,-0.626512 0.109554,0.334144 1.014458,1.463126 0.691104,2.000655 -0.323354,0.537529 -1.457212,0.251594 -1.741099,0.276854 -0.283887,0.02526 -10.963822,0.01813 -11.002082,-0.09665 -0.03826,-0.114781 -0.191304,-0.573912 -0.229559,-0.688689 -0.03825,-0.114778 -0.171205,0.519661 0,-3e-6 z"
           id="path2727"
           sodipodi:nodetypes="zzzzzzzzzzz" /></g><path
         style="fill:#535d6c;fill-opacity:1;stroke-width:0.581449;stroke-linecap:round"
         d="m 51.362775,27.890363 c 0.796391,2.455061 2.229927,2.976763 1.533707,5.626108 0.145091,6.1037 0.736118,14.01284 0.06207,20.116547 -1.562709,1.25239 -7.016166,1.439114 -8.57888,2.691494 -1.542409,-2.933616 -1.355967,-4.705469 -2.022124,-7.875126 l -3.350433,-12.25917 c 0.837086,-2.32026 1.540171,-4.67634 2.461179,-6.974165 1.449168,-2.189779 5.228593,-2.975872 7.967002,-1.956118 0.661118,0.176272 1.301103,0.393929 1.927482,0.63043 z"
         id="path1109"
         sodipodi:nodetypes="ccccccccc"
         inkscape:transform-center-x="-2.2981378"
         inkscape:transform-center-y="-11.497387" /><path
         id="path1111"
         style="fill:#535d6c;fill-opacity:1;stroke-width:0.581448;stroke-linecap:round"
         d="m 34.04972,26.848823 c 1.51383,-0.202005 3.075674,-0.186096 4.647844,0.160874 1.490501,0.388116 2.57771,4.173044 3.495471,5.172855 -0.816207,7.528804 -0.01728,16.171798 -1.707477,23.577456 -0.247225,2.006711 -4.327363,-1.547384 -6.49872,-1.225636 -2.602301,0.979776 -2.369396,-0.217002 -3.265998,-1.453651 -1.286561,-2.773156 -1.743638,-7.326029 -2.130561,-10.20048 -0.660983,-4.571895 -1.096397,-9.149019 -1.525934,-13.724454 2.07366,-1.027526 4.462317,-1.970322 6.985374,-2.306968 z"
         sodipodi:nodetypes="scccccccss"
         inkscape:transform-center-y="-12.686856"
         inkscape:transform-center-x="-0.91349815" /><path
         style="fill:#e25563;fill-opacity:1;stroke-width:0.581449;stroke-linecap:round"
         d="m 52.934476,17.493578 c 0,0 1.604977,-22.0621767 -0.131501,-22.8339443 -0.29293,-0.1301908 -2.022444,-2.9107413 -3.183675,-3.1158785 -4.069428,-0.7188843 -11.527588,-1.0171953 -16.969005,-0.5638868 -2.210437,0.184145 -5.109898,2.2337515 -5.526904,2.5117565 -1.736479,1.1576546 0.910063,21.2719021 1.295943,23.7801511 0.38589,2.508248 -1.682355,14.509252 -1.682355,14.509252 0,0 18.91751,2.104999 26.728405,-1.142493 -0.462261,-3.927363 0.207566,-11.944938 -0.530908,-13.144957 z"
         id="path4167"
         sodipodi:nodetypes="csssssccc" /><path
         style="fill:#c64a57;fill-opacity:1;stroke:none;stroke-width:0.290724;stroke-linecap:round;stroke-dasharray:none"
         d="m 27.853945,1.3067191 4.011731,11.5014439 -1.21568,15.496683 -0.729405,3.389901 H 26.638262 L 28.34021,22.251453 27.002966,6.8758391 Z"
         id="path49464" /><g
         id="g42641"
         inkscape:transform-center-x="-2.6330023"
         inkscape:transform-center-y="18.787659"
         transform="matrix(0.98581387,-0.17138616,0.13497728,0.99092414,0.83049191,8.865888)"><path
           style="opacity:1;fill:#e25563;fill-opacity:1;stroke-width:2.90724;stroke-linecap:round"
           d="m 49.183939,-8.8398842 c 0,0 2.830533,1.0671273 4.329399,2.8602129 1.498866,1.7930855 2.138118,4.1169009 2.644928,7.4125006 0.50681,3.2955997 1.825992,12.5447937 1.825992,12.5447937 l -3.778082,1.033069 -3.32393,-4.885376 -1.8527,-12.5940791 z"
           id="path39693"
           sodipodi:nodetypes="czzccccc" /><g
           id="g41909"
           inkscape:transform-center-x="-2.0033297"
           inkscape:transform-center-y="-11.641923"
           transform="matrix(-0.95299767,-0.33010964,0.33403132,-0.93361513,106.69251,41.311375)"><path
             style="opacity:1;fill:#e25563;fill-opacity:1;stroke-width:2.90724;stroke-linecap:round"
             d="m 54.050861,9.7590032 c 0,0 -1.795011,4.9813338 -1.908248,8.4577418 -0.113237,3.476409 1.499979,11.616661 1.499979,11.616661 l 4.159581,-0.397469 1.511952,-9.451083 2.18826,-4.925173 -4.826866,-6.5307338 z"
             id="path40451"
             inkscape:transform-center-x="0.28044017"
             inkscape:transform-center-y="8.2729851"
             sodipodi:nodetypes="czcccccc" /><path
             style="fill:#ffd9bf;fill-opacity:1;stroke:none;stroke-width:0.290724;stroke-linecap:round;stroke-dasharray:none;stroke-opacity:1"
             d="m 57.454824,28.672624 0.498899,1.553838 c 0,0 1.219514,0.62124 1.799333,1.136011 0.57982,0.514772 1.58705,1.956169 1.58705,1.956169 l -0.232246,0.54998 -1.472584,-0.850361 -0.578524,-0.02803 c 0,0 -0.02393,0.471327 0.249467,1.565922 0.273396,1.094596 0.911502,4.405423 0.911502,4.405423 l -0.294992,0.420452 -0.531169,-0.329499 -1.057239,-3.754994 -0.188716,0.08407 0.679839,4.488616 -0.281523,0.373209 -0.475816,-0.292955 -0.811875,-3.415198 -0.201179,-0.61205 -0.311073,0.011 0.07758,4.010778 -0.380235,0.334062 -0.361742,-0.159864 -0.379772,-4.070662 -0.241864,-0.107541 -0.336983,2.869802 -0.583262,0.02062 -0.130378,-3.111449 c 0,0 -0.555442,-2.744517 -0.531213,-3.618877 0.02423,-0.874361 0.324205,-1.571997 0.324205,-1.571997 l -0.06201,-1.893994 1.856827,-0.72351 z"
             id="path65258"
             sodipodi:nodetypes="cczcccczccccccccccccccccccczcccc"
             inkscape:transform-center-x="-0.60373961"
             inkscape:transform-center-y="-4.401055" /></g><path
           id="path47162"
           style="opacity:1;fill:#e25563;stroke-width:0.290814;stroke-linecap:round"
           transform="matrix(0.98537054,0.17042564,-0.13565401,0.99075627,0,0)"
           d="m 59.90248,4.2085454 c -0.52855,1.1310164 -1.591173,1.9176824 -2.738986,1.9176822 -1.147812,-3e-7 -2.078298,-0.9168701 -2.078298,-2.0478861 0,-1.131016 0.930486,-2.0478858 2.078298,-2.0478861 1.147813,-2e-7 3.219081,1.1507614 2.738986,2.17809 z"
           sodipodi:nodetypes="sssss" /></g><path
         style="opacity:1;fill:#ffd9bf;fill-opacity:1;stroke-width:2.90724;stroke-linecap:round"
         d="m 36.553588,-12.966926 -0.192245,2.871794 2.30692,1.5316229 4.133233,0.4786323 1.345704,-0.7658112 -0.09612,-2.584615 z"
         id="path42736"
         sodipodi:nodetypes="ccccccc" /><g
         id="g409"
         transform="rotate(-2.5035691,-727.73021,934.84366)"
         style="stroke-width:1.0988"><rect
           style="fill:#483737;fill-opacity:1;stroke-width:0.581449;stroke-linecap:round"
           id="rect5342"
           width="2.496511"
           height="5.6171494"
           x="85.26133"
           y="12.498936"
           rx="1.0096776"
           ry="1.3883067" /><path
           id="path4221"
           style="fill:#ffd9bf;stroke-width:0.581449;stroke-linecap:round;fill-opacity:1"
           d="m 87.020409,17.890897 c 0,4.057806 -1.531886,6.775182 -5.402381,6.775182 -3.673419,0 -5.40238,-2.717377 -5.40238,-6.775182 0,-4.057804 1.040213,-7.244753 5.40238,-7.347307 4.560261,-0.107211 5.402381,3.289502 5.402381,7.347307 z"
           sodipodi:nodetypes="sssss" /><path
           id="rect647"
           style="fill:#483737;stroke-width:0.581449;stroke-linecap:round"
           d="M 78.822398,8.6980178 C 81.716613,8.8657134 85.50922,7.5880839 87.505044,7.9081342 89.500869,8.2281846 87.907,12.79493 85.955674,12.910731 h -7.133276 c -1.259442,0 -2.273361,-0.891153 -2.273361,-1.998102 v -0.21651 c 0,-1.1069482 1.016489,-2.0709263 2.273361,-1.9981012 z"
           sodipodi:nodetypes="szcssss" /><rect
           style="fill:#483737;fill-opacity:1;stroke-width:0.581449;stroke-linecap:round"
           id="rect5214"
           width="2.496511"
           height="6.3973093"
           x="75.615196"
           y="11.818504"
           rx="1.0096776"
           ry="1.581127" /><rect
           style="fill:#ffd9bf;fill-opacity:1;stroke-width:0.581449;stroke-linecap:round"
           id="rect5345"
           width="2.028415"
           height="4.3688941"
           x="75.303131"
           y="15.092828"
           rx="2.4805279"
           ry="3.9196229" /><circle
           style="fill:#241c1c;fill-opacity:1;stroke-width:0.581449;stroke-linecap:round"
           id="path5520"
           cx="81.595558"
           cy="17.351255"
           r="0.3905766" /><path
           style="fill:#483737;fill-opacity:1;stroke-width:0.581449;stroke-linecap:round"
           d="m 76.61722,21.044801 c 0,0 1.263398,-1.329893 2.194323,-1.130409 0.930923,0.199485 1.455267,2.12402 1.987224,2.12402 0.531958,0 1.220962,-1.411154 1.795355,-1.196903 0.598451,0.223225 3.735119,0.172485 3.868111,0.203292 0.471601,0.109244 0.398965,1.196903 0.398965,1.196903 0,0 -1.134215,2.859269 -1.666173,3.258236 -0.531956,0.398968 -3.495404,0.388445 -3.995919,0.465463 -0.827164,0.127281 -5.342272,-4.480806 -4.581886,-4.920602 z"
           id="path7933"
           sodipodi:nodetypes="cszsscssc" /><rect
           style="fill:#634b4b;fill-opacity:1;stroke-width:0.581538;stroke-linecap:round"
           id="rect14429"
           width="2.134635"
           height="0.5133366"
           x="83.503838"
           y="22.479269"
           rx="0.2134635"
           ry="0.2566683"
           transform="matrix(0.99678408,-0.0801342,0.05533343,0.99846793,0,0)" /><path
           style="fill:#ffd9bf;fill-opacity:1;stroke-width:0.581449;stroke-linecap:round"
           d="m 82.114688,23.179529 c 0,0 0.243735,-2.004867 0.937567,-1.884874 0.654302,0.113157 2.42341,0.08723 2.804297,0.251817 0.602405,0.260316 -0.229263,1.948862 -0.570285,1.993976 -0.341023,0.04511 -0.852554,0.406035 -0.895183,0.04511 -0.04262,-0.360919 0.383651,-0.279564 0.08526,-0.369793 -0.298395,-0.09023 -1.125446,-0.574277 -1.125446,-0.168248 0,0.406034 0.341023,-0.03624 -0.170512,0.189335 -0.511532,0.225574 -1.150949,0.270689 -1.150949,0 0,-0.27069 0.08526,-0.05733 0.08526,-0.05733 z"
           id="path14435"
           sodipodi:nodetypes="csssssssscc" /><path
           style="opacity:1;fill:#ffbcbc;fill-opacity:1;stroke:none;stroke-width:0.290724;stroke-linecap:round;stroke-dasharray:none"
           d="m 85.642718,21.837124 -0.122436,0.330478 -1.265187,0.354644 -1.448841,-0.487634 0.16973,-0.311345 0.646347,0.09101 0.653172,-0.03859 0.721455,0.113778 z"
           id="path17981"
           sodipodi:nodetypes="ccccccccc" /><path
           id="path24683"
           style="fill:#e9c6af;fill-opacity:1;stroke:none;stroke-width:0.290724;stroke-linecap:round;stroke-dasharray:none"
           d="m 84.235436,17.045652 1.160238,2.448221 -0.106183,0.310884 0.02947,2.55e-4 -0.0414,0.03595 -0.01777,0.05147 -0.03868,-0.0027 -0.198337,0.170816 -0.695423,-0.0066 -0.330095,0.06109 -0.310354,-0.165644 0.377309,-0.277305 0.399206,0.132803 0.396209,2.54e-4 0.177438,-0.260699 -0.906095,-2.262792 z" /><use
           x="0"
           y="0"
           xlink:href="#rect14429"
           id="use35559"
           transform="matrix(-1,0,0,1,166.72851,-0.07252989)"
           style="stroke-width:1.0988" /><rect
           style="opacity:1;fill:#483737;fill-opacity:1;stroke:none;stroke-width:0.290724;stroke-linecap:round;stroke-dasharray:none"
           id="rect42602"
           width="2.7775736"
           height="2.5557561"
           x="-78.872025"
           y="11.783834"
           transform="scale(-1,1)"
           rx="1.0531088"
           ry="0.95542276" /><circle
           style="fill:#241c1c;fill-opacity:1;stroke-width:0.581449;stroke-linecap:round"
           id="circle1224"
           cx="85.780228"
           cy="17.384306"
           r="0.3905766" /></g><rect
         style="fill:#f4e3d7;fill-opacity:1;stroke:none;stroke-width:0.10988;stroke-linecap:round"
         id="rect2174"
         width="1.0770465"
         height="7.754735"
         x="-45.944035"
         y="-6.1603665"
         ry="0.53852326"
         transform="scale(-1,1)" /><rect
         style="fill:#f4e3d7;fill-opacity:1;stroke:none;stroke-width:0.10988;stroke-linecap:round"
         id="rect2176"
         width="1.0770465"
         height="7.754735"
         x="-41.65517"
         y="-5.9907422"
         ry="0.53852326"
         transform="scale(-1,1)" /><path
         style="opacity:1;fill:#4a5360;fill-opacity:1;stroke:none;stroke-width:0.290724;stroke-linecap:round;stroke-dasharray:none;stroke-opacity:1"
         d="m 29.738241,31.997418 0.97254,6.900866 2.552923,12.712125 -0.729405,2.663492 1.959226,25.289811 -1.930527,-1.328619 -0.508835,-2.893353 -0.933652,-4.919911 -0.955847,-10.639017 0.333123,-1.480368 -0.394844,-4.876018 -0.607838,-4.237375 -1.580379,-10.775037 -0.850974,-6.658732 z"
         id="path60295"
         sodipodi:nodetypes="ccccccccccccccc" /><g
         id="g42651"
         inkscape:transform-center-x="3.7551052"
         inkscape:transform-center-y="20.490455"
         transform="matrix(-0.9942466,-0.11319421,-0.07606706,0.99712651,80.120769,5.7152424)"><path
           style="opacity:1;fill:#e25563;fill-opacity:1;stroke-width:2.90724;stroke-linecap:round"
           d="m 49.183939,-8.8398842 6.638837,3.2596437 c 0,0 1.903706,4.2172663 2.470265,7.260115 0.566559,3.0428487 0.420623,10.8725495 0.420623,10.8725495 L 51.82132,15.34599 51.207747,10.89149 50.427307,7.1848288 49.02955,-2.4687631 Z"
           id="path42643"
           sodipodi:nodetypes="cczcccccc" /><g
           id="g42649"
           inkscape:transform-center-x="0.56927385"
           inkscape:transform-center-y="12.501237"
           transform="matrix(0.98988975,0.16142941,-0.16315094,0.98360715,2.4367661,-8.6661977)"><path
             style="opacity:1;fill:#e25563;fill-opacity:1;stroke-width:2.90724;stroke-linecap:round"
             d="m 52.889335,11.456011 c 0,0 -1.042744,3.75575 -1.002365,6.87743 0.04038,3.12168 1.542806,12.571042 1.542806,12.571042 l 1.929642,0.164724 2.111176,0.822208 1.748798,-12.132537 -0.463175,-8.764138 -3.242224,-0.768785 z"
             id="path42645"
             inkscape:transform-center-x="0.28044017"
             inkscape:transform-center-y="8.2729851"
             sodipodi:nodetypes="czccccccc" /><path
             style="opacity:1;fill:#ffd9bf;fill-opacity:1;stroke:none;stroke-width:1.1629;stroke-linecap:round;stroke-dasharray:none"
             d="m 57.24025,31.81161 -0.115414,3.042762 -1.163154,3.355051 -0.279258,0.08485 -1.055871,1.30924 -0.417855,0.139093 -0.752902,0.677498 -0.507867,-0.07005 -0.137597,-0.20681 0.342262,-0.728579 0.71453,-1.387442 0.234671,-0.865674 -0.91513,1.824354 -0.382628,0.540735 -0.330981,0.03992 -0.237975,-0.534081 0.758963,-1.698072 0.330672,-2.22284 -0.120099,-0.824581 -0.854277,0.61128 -0.955652,0.545055 0.0051,-0.759524 2.107525,-3.211462 0.04335,-0.595309 1.87631,0.145424 z"
             id="path9254" /></g></g><path
         style="opacity:1;fill:none;fill-opacity:1;stroke:#cb4c59;stroke-width:0.290724;stroke-linecap:round;stroke-dasharray:none;stroke-opacity:1"
         d="m 33.749975,23.764806 c 2.373599,-1.319992 4.661624,-2.782023 6.078383,-5.690191 l 8.023469,-0.484272 c 0.974017,1.566105 1.723685,3.087525 4.254868,4.963782 l -0.121566,6.295529 c -5.956817,1.471395 -11.913634,1.877978 -17.870451,1.089611 z"
         id="path56758"
         sodipodi:nodetypes="ccccccc" /><path
         style="opacity:1;fill:#4a5360;fill-opacity:1;stroke:none;stroke-width:0.290724;stroke-linecap:round;stroke-dasharray:none;stroke-opacity:1"
         d="m 42.436244,39.850244 2.791476,13.864122 -0.685975,3.877717 1.509171,6.402879 1.245531,15.887821 -1.240671,-0.381432 -0.945934,-4.183565 -0.571183,-0.519764 -1.471104,-12.660493 0.476476,-0.878468 -0.433343,-5.749395 -0.171521,-3.632035 -1.392209,-6.352174 z"
         id="path59311"
         sodipodi:nodetypes="cccccccccccccc" /><path
         style="opacity:1;fill:#4a5360;fill-opacity:1;stroke:none;stroke-width:0.290724;stroke-linecap:round;stroke-dasharray:none;stroke-opacity:1"
         d="m 29.85981,37.929742 2.796055,-1.69495 0.364703,-3.632035 0.476793,-0.251576 -0.549425,4.237374 -3.209695,1.878911 z"
         id="path61879"
         sodipodi:nodetypes="ccccccc" /><path
         style="opacity:1;fill:#4a5360;fill-opacity:1;stroke:none;stroke-width:0.290724;stroke-linecap:round;stroke-dasharray:none;stroke-opacity:1"
         d="m 44.75577,32.772568 v 3.270485 l -2.606143,1.352004 0.04485,-0.400072 2.156529,-1.199537 -0.03731,-3.337347 z"
         id="path62805"
         sodipodi:nodetypes="ccccccc" /><path
         style="opacity:1;fill:#4a5360;fill-opacity:1;stroke:none;stroke-width:0.290724;stroke-linecap:round;stroke-dasharray:none;stroke-opacity:1"
         d="m 51.598772,31.424475 0.07774,4.335627 0.544193,0.387112 0.03887,-0.580667 -0.233225,-0.193554 -0.03887,-4.180784 z"
         id="path64393" /></g></g></svg>
