<?xml version="1.0" encoding="UTF-8" standalone="no"?>
<!-- Created with Inkscape (http://www.inkscape.org/) -->

<svg
   width="400"
   height="400"
   viewBox="0 0 105.83333 105.83333"
   version="1.1"
   id="svg377"
   inkscape:version="1.2 (dc2aeda, 2022-05-15)"
   sodipodi:docname="desk.svg"
   xml:space="preserve"
   xmlns:inkscape="http://www.inkscape.org/namespaces/inkscape"
   xmlns:sodipodi="http://sodipodi.sourceforge.net/DTD/sodipodi-0.dtd"
   xmlns:xlink="http://www.w3.org/1999/xlink"
   xmlns="http://www.w3.org/2000/svg"
   xmlns:svg="http://www.w3.org/2000/svg"><sodipodi:namedview
     id="namedview379"
     pagecolor="#1a1c23"
     bordercolor="#eeeeee"
     borderopacity="1"
     inkscape:showpageshadow="0"
     inkscape:pageopacity="0"
     inkscape:pagecheckerboard="0"
     inkscape:deskcolor="#505050"
     inkscape:document-units="px"
     showgrid="false"
     inkscape:zoom="1.4782752"
     inkscape:cx="250.62993"
     inkscape:cy="196.5128"
     inkscape:window-width="1440"
     inkscape:window-height="847"
     inkscape:window-x="0"
     inkscape:window-y="25"
     inkscape:window-maximized="1"
     inkscape:current-layer="layer1"><inkscape:grid
       type="xygrid"
       id="grid8255"
       originx="0"
       originy="0" /></sodipodi:namedview><defs
     id="defs374"><inkscape:path-effect
       effect="powerstroke"
       id="path-effect2648"
       is_visible="true"
       lpeversion="1"
       offset_points="0,1.172605"
       not_jump="false"
       sort_points="true"
       interpolator_type="CubicBezierJohan"
       interpolator_beta="0.2"
       start_linecap_type="zerowidth"
       linejoin_type="extrp_arc"
       miter_limit="4"
       scale_width="1"
       end_linecap_type="zerowidth" /><inkscape:path-effect
       effect="powerstroke"
       id="path-effect16627"
       is_visible="true"
       lpeversion="1"
       offset_points="0,1.172605"
       not_jump="false"
       sort_points="true"
       interpolator_type="CubicBezierJohan"
       interpolator_beta="0.2"
       start_linecap_type="zerowidth"
       linejoin_type="extrp_arc"
       miter_limit="4"
       scale_width="1"
       end_linecap_type="zerowidth" /><inkscape:path-effect
       effect="powerstroke"
       id="path-effect16569"
       is_visible="true"
       lpeversion="1"
       offset_points="0,1.172605"
       not_jump="false"
       sort_points="true"
       interpolator_type="CubicBezierJohan"
       interpolator_beta="0.2"
       start_linecap_type="zerowidth"
       linejoin_type="extrp_arc"
       miter_limit="4"
       scale_width="1"
       end_linecap_type="zerowidth" /><inkscape:path-effect
       effect="powerstroke"
       id="path-effect16507"
       is_visible="true"
       lpeversion="1"
       offset_points="0,1.172605"
       not_jump="false"
       sort_points="true"
       interpolator_type="CubicBezierJohan"
       interpolator_beta="0.2"
       start_linecap_type="zerowidth"
       linejoin_type="extrp_arc"
       miter_limit="4"
       scale_width="1"
       end_linecap_type="zerowidth" /><inkscape:path-effect
       effect="skeletal"
       id="path-effect16503"
       is_visible="true"
       lpeversion="1"
       pattern="M 0,4.9921384 C 0,2.236478 2.236478,0 4.9921384,0 c 2.7556604,0 4.9921384,2.236478 4.9921384,4.9921384 0,2.7556604 -2.236478,4.9921384 -4.9921384,4.9921384 C 2.236478,9.9842768 0,7.7477988 0,4.9921384 Z"
       copytype="single_stretched"
       prop_scale="0.003"
       scale_y_rel="false"
       spacing="0"
       normal_offset="0"
       tang_offset="0"
       prop_units="false"
       vertical_pattern="false"
       hide_knot="false"
       fuse_tolerance="0" /><inkscape:path-effect
       effect="powerstroke"
       id="path-effect15134"
       is_visible="true"
       lpeversion="1"
       offset_points="3.1251169e-15,1.172605"
       not_jump="false"
       sort_points="true"
       interpolator_type="CubicBezierJohan"
       interpolator_beta="0.2"
       start_linecap_type="zerowidth"
       linejoin_type="extrp_arc"
       miter_limit="4"
       scale_width="1"
       end_linecap_type="zerowidth" /><inkscape:path-effect
       effect="powerstroke"
       id="path-effect15072"
       is_visible="true"
       lpeversion="1"
       offset_points="0,1.5"
       not_jump="false"
       sort_points="true"
       interpolator_type="CubicBezierJohan"
       interpolator_beta="0.2"
       start_linecap_type="zerowidth"
       linejoin_type="extrp_arc"
       miter_limit="4"
       scale_width="1"
       end_linecap_type="zerowidth" /><inkscape:path-effect
       effect="powerstroke"
       id="path-effect14444"
       is_visible="true"
       lpeversion="1"
       offset_points="0,2"
       not_jump="false"
       sort_points="true"
       interpolator_type="CubicBezierJohan"
       interpolator_beta="0.2"
       start_linecap_type="zerowidth"
       linejoin_type="extrp_arc"
       miter_limit="4"
       scale_width="1"
       end_linecap_type="zerowidth" /><inkscape:path-effect
       effect="spiro"
       id="path-effect11193"
       is_visible="true"
       lpeversion="1" /><inkscape:path-effect
       effect="simplify"
       id="path-effect11191"
       is_visible="true"
       lpeversion="1"
       steps="1"
       threshold="0.00159091"
       smooth_angles="360"
       helper_size="0"
       simplify_individual_paths="false"
       simplify_just_coalesce="false" /><linearGradient
       inkscape:collect="always"
       id="linearGradient26828"><stop
         style="stop-color:#7664c7;stop-opacity:1;"
         offset="0"
         id="stop26824" /><stop
         style="stop-color:#aa9ddd;stop-opacity:1;"
         offset="1"
         id="stop26826" /></linearGradient><linearGradient
       id="a"
       x1="82.849998"
       y1="30.41"
       x2="51.259998"
       y2="105.9"
       gradientTransform="matrix(1,0,0,-1,-22.41,110.97)"
       gradientUnits="userSpaceOnUse"><stop
         offset="0"
         stop-color="#6c56cc"
         id="stop132" /><stop
         offset="1"
         stop-color="#9785e5"
         id="stop134" /></linearGradient><linearGradient
       id="a-1"
       x1="82.849998"
       y1="30.41"
       x2="51.259998"
       y2="105.9"
       gradientTransform="matrix(1,0,0,-1,-22.41,110.97)"
       gradientUnits="userSpaceOnUse"><stop
         offset="0"
         stop-color="#6c56cc"
         id="stop4693" /><stop
         offset="1"
         stop-color="#9785e5"
         id="stop4695" /></linearGradient><linearGradient
       inkscape:collect="always"
       xlink:href="#linearGradient26828"
       id="linearGradient26830"
       x1="90.990067"
       y1="57.084557"
       x2="147.45816"
       y2="57.084557"
       gradientUnits="userSpaceOnUse"
       gradientTransform="translate(-21.166667)" /><inkscape:path-effect
       effect="fill_between_many"
       method="bsplinespiro"
       linkedpaths="#path14442,0,1"
       id="path-effect14446"
       is_visible="true"
       lpeversion="0"
       join="true"
       close="true"
       autoreverse="true" /><inkscape:path-effect
       effect="powerstroke"
       id="path-effect14444-4"
       is_visible="true"
       lpeversion="1"
       offset_points="0,1.5"
       not_jump="false"
       sort_points="true"
       interpolator_type="CubicBezierJohan"
       interpolator_beta="0.2"
       start_linecap_type="zerowidth"
       linejoin_type="extrp_arc"
       miter_limit="4"
       scale_width="1"
       end_linecap_type="zerowidth" /><inkscape:path-effect
       effect="fill_between_many"
       method="bsplinespiro"
       linkedpaths="#path15070,0,1"
       id="path-effect15074"
       is_visible="true"
       lpeversion="0"
       join="true"
       close="true"
       autoreverse="true" /><inkscape:path-effect
       effect="fill_between_many"
       method="bsplinespiro"
       linkedpaths="#path16505,0,1"
       id="path-effect16509"
       is_visible="true"
       lpeversion="0"
       join="true"
       close="true"
       autoreverse="true" /><inkscape:path-effect
       effect="fill_between_many"
       method="bsplinespiro"
       linkedpaths="#path16625,0,1"
       id="path-effect16629"
       is_visible="true"
       lpeversion="0"
       join="true"
       close="true"
       autoreverse="true" /><inkscape:path-effect
       effect="skeletal"
       id="path-effect16503-6"
       is_visible="true"
       lpeversion="1"
       pattern="M 0,4.9921384 C 0,2.236478 2.236478,0 4.9921384,0 c 2.7556604,0 4.9921384,2.236478 4.9921384,4.9921384 0,2.7556604 -2.236478,4.9921384 -4.9921384,4.9921384 C 2.236478,9.9842768 0,7.7477988 0,4.9921384 Z"
       copytype="single_stretched"
       prop_scale="0.003"
       scale_y_rel="false"
       spacing="0"
       normal_offset="0"
       tang_offset="0"
       prop_units="false"
       vertical_pattern="false"
       hide_knot="false"
       fuse_tolerance="0" /><inkscape:path-effect
       effect="skeletal"
       id="path-effect16503-6-4"
       is_visible="true"
       lpeversion="1"
       pattern="M 0,4.9921384 C 0,2.236478 2.236478,0 4.9921384,0 c 2.7556604,0 4.9921384,2.236478 4.9921384,4.9921384 0,2.7556604 -2.236478,4.9921384 -4.9921384,4.9921384 C 2.236478,9.9842768 0,7.7477988 0,4.9921384 Z"
       copytype="single_stretched"
       prop_scale="0.003"
       scale_y_rel="false"
       spacing="0"
       normal_offset="0"
       tang_offset="0"
       prop_units="false"
       vertical_pattern="false"
       hide_knot="false"
       fuse_tolerance="0" /><inkscape:path-effect
       effect="fill_between_many"
       method="bsplinespiro"
       linkedpaths="#path2646,0,1"
       id="path-effect2650"
       is_visible="true"
       lpeversion="0"
       join="true"
       close="true"
       autoreverse="true" /><linearGradient
       inkscape:collect="always"
       xlink:href="#linearGradient27067"
       id="linearGradient27069"
       x1="82.112991"
       y1="49.686993"
       x2="83.345909"
       y2="85.441895"
       gradientUnits="userSpaceOnUse"
       gradientTransform="matrix(0.76986299,0,0,1,19.560255,29.85402)" /><linearGradient
       inkscape:collect="always"
       id="linearGradient27067"><stop
         style="stop-color:#272141;stop-opacity:1;"
         offset="0"
         id="stop27063" /><stop
         style="stop-color:#272141;stop-opacity:0;"
         offset="1"
         id="stop27065" /></linearGradient></defs><g
     inkscape:label="Слой 1"
     inkscape:groupmode="layer"
     id="layer1"
     transform="translate(-33.042465,-7.8564459)"><ellipse
       style="opacity:0.0829146;fill:#fff6d5;stroke:#ffffff;stroke-width:0.264583;stroke-linecap:round"
       id="path6345"
       cx="87.304863"
       cy="57.359638"
       rx="44.874298"
       ry="43.739216" /><g
       id="g24030"
       transform="translate(0,29.299653)"><path
         style="fill:#005544;fill-opacity:1;stroke-width:0.529167;stroke-linecap:round"
         d="m 43.077494,67.886538 c 0,0 -10.563188,-26.407972 2.28869,-26.584026 12.85188,-0.176051 18.133474,8.2745 18.133474,8.2745 L 50.471726,80.914468 Z"
         id="path10040" /><path
         style="fill:#008066;fill-opacity:1;stroke-width:0.529167;stroke-linecap:round"
         d="m 35.507209,74.048395 c 0,0 2.288691,-12.323717 10.035029,-13.027929 7.746338,-0.704215 11.619507,1.760529 11.619507,1.760529 0,0 -20.422164,4.049223 -21.654536,11.2674 z"
         id="path10096" /><path
         style="fill:#002b22;fill-opacity:1;stroke-width:0.529167;stroke-linecap:round"
         d="m 47.302769,22.992987 c 0,0 7.218179,0.528159 7.218179,4.929487 0,4.401329 1.936584,4.753436 1.936584,4.753436 l 10.915295,-6.337914 c 0,0 2.464744,-14.084251 -20.070058,-3.345009 z"
         id="path12007" /><path
         style="fill:#008066;fill-opacity:1;stroke-width:0.529167;stroke-linecap:round"
         d="m 81.238117,18.567548 c 0,0 -9.322089,-2.497547 -10.673689,-5.097299 -1.351601,-2.599752 -1.351601,-2.599752 -1.351601,-2.599752 0,0 -1.978876,15.502334 2.604536,18.126752 4.583412,2.624418 9.420754,-10.429701 9.420754,-10.429701 z"
         id="path12063" /><path
         style="fill:#3d8d5c;fill-opacity:1;stroke-width:0.529167;stroke-linecap:round"
         d="m 48.998553,11.859954 c 0,0 16.725049,6.513966 20.24611,22.534802 3.521065,16.020836 8.802659,13.203984 8.802659,13.203984 0,0 -6.16186,-41.0203804 -29.048769,-35.738786 z"
         id="path10098" /><path
         style="fill:#008066;fill-opacity:1;stroke-width:0.529167;stroke-linecap:round"
         d="m 36.387475,49.224905 c 0,0 4.577382,-26.760078 16.548995,-21.302431 11.971614,5.457648 8.978709,12.147668 8.978709,12.147668 0,0 -25.527704,4.577381 -25.527704,9.154763 z"
         id="path9984" /><path
         style="fill:#367d52;fill-opacity:1;stroke-width:0.529167;stroke-linecap:round"
         d="m 71.372354,35.951383 c 0,0 9.481367,-25.439298 20.227015,-17.847428 10.745641,7.591876 6.5591,13.6074 6.5591,13.6074 0,0 -25.933574,-0.25726 -26.786115,4.240028 z"
         id="path429" /><path
         style="fill:#aa9ddd;fill-opacity:1;stroke-width:0.529167;stroke-linecap:round"
         d="m 51.536383,38.220761 8.630493,-17.260988 16.274648,0.739756 z"
         id="path23885"
         sodipodi:nodetypes="cccc" /><path
         style="fill:#7462c7;fill-opacity:1;stroke-width:0.529167;stroke-linecap:round"
         d="M 77.674451,20.959773 102.08642,34.521978 88.524216,84.332261 H 54.248822 L 47.344427,37.974177 Z"
         id="path24086" /><path
         style="fill:#4a3d79;fill-opacity:1;stroke-width:0.529167;stroke-linecap:round"
         d="M 38.587699,84.676327 56.737787,69.598614 68.177941,85.662669 Z"
         id="path17377"
         sodipodi:nodetypes="cccc" /><path
         style="fill:#7d69d6;fill-opacity:1;stroke-width:0.529167;stroke-linecap:round"
         d="M 62.080026,84.825431 50.490504,59.180533 70.217349,26.877825 97.095173,49.810283 86.491997,84.578845 Z"
         id="path21660"
         sodipodi:nodetypes="cccccc" /><path
         style="fill:#005544;fill-opacity:1;stroke-width:0.529167;stroke-linecap:round"
         d="m 112.97059,34.084335 c 0,0 14.78846,1.760532 17.60531,10.915295 2.81685,9.154763 4.40133,15.140569 4.40133,15.140569 0,0 -12.85188,-4.753435 -14.78846,-6.16186 -1.93659,-1.408424 -7.21818,-19.894004 -7.21818,-19.894004 z"
         id="path11038" /><path
         style="fill:#005544;fill-opacity:1;stroke-width:0.529167;stroke-linecap:round"
         d="m 97.131114,35.715805 c 0,0 -0.528159,-12.323719 5.457646,-13.027932 5.98581,-0.704212 10.21109,-1.056318 12.14767,-2.28869 1.93658,-1.232372 -8.2745,7.922391 -8.09845,12.147666 0.17606,4.225275 -0.3521,5.809754 -0.3521,5.809754 z"
         id="path11195" /><path
         style="fill:#367d52;fill-opacity:1;stroke-width:0.529167;stroke-linecap:round"
         d="m 103.11161,31.61959 c 0,0 18.83769,-19.541898 24.99955,-3.521062 6.16186,16.020836 8.2745,16.725048 8.2745,16.725048 0,0 -8.2745,-6.16186 -10.56319,-2.464744 -2.28869,3.697115 -5.10554,4.929489 -5.10554,4.929489 z"
         id="path11036" /><path
         style="fill:#a49ec7;fill-opacity:1;stroke-width:0.529167;stroke-linecap:round"
         d="m 79.440242,34.768565 26.138058,-9.863424 6.65781,4.191956 z"
         id="path24211" /><path
         style="fill:#4a3d79;fill-opacity:1;stroke-width:0.529167;stroke-linecap:round"
         d="m 105.79187,83.617993 18.1501,-15.077713 11.44016,16.064055 z"
         id="path17239"
         sodipodi:nodetypes="cccc" /><path
         style="fill:url(#linearGradient26830);fill-opacity:1;stroke-width:0.529167;stroke-linecap:round"
         d="M 111.49635,28.110754 126.29148,51.536382 93.495606,84.578845 69.823402,83.099332 78.947072,34.028808 Z"
         id="path25779"
         sodipodi:nodetypes="cccccc" /><path
         style="fill:#7664c7;fill-opacity:1;stroke-width:0.529167;stroke-linecap:round"
         d="m 80.426582,84.332261 8.630497,-25.891484 27.864151,-7.150981 13.0477,21.640087 -3.75445,11.461946 z"
         id="path26955"
         sodipodi:nodetypes="cccccc" /><path
         style="fill:#008066;fill-opacity:1;stroke:none;stroke-width:0.1;stroke-linecap:round;stroke-dasharray:none"
         d="m 51.486319,69.258877 c -0.160029,-0.293916 0.727734,-1.11526 2.183984,-2.111028 0.728753,-0.701097 1.686772,-1.734046 1.960785,-2.782358 0.06435,-0.246209 0.09112,-0.489178 0.07755,-0.730654 0.02634,-1.997605 0.934283,-3.516324 1.87998,-4.346575 v 0 c 0.466059,-0.402933 0.915701,-0.631886 1.251562,-0.735632 v 0 c 0.177516,-0.05485 0.326035,-0.07627 0.438578,-0.07009 v 0 h 10e-7 c 0.05919,0.0025 0.107608,0.01228 0.14539,0.02912 v 0 0 c 0.06322,0.07321 0.08121,0.07804 0.08431,0.078 4.02e-4,-6e-6 3.17e-4,3.4e-5 3.17e-4,3.3e-5 0,-10e-7 8.4e-5,-4.2e-5 -1.71e-4,2.64e-4 -0.002,0.0024 -0.0095,0.01944 0.01128,0.114657 v 0 0 c -0.006,0.03901 -0.01986,0.08312 -0.04042,0.130516 v 0 0 c -0.04246,0.09304 -0.114849,0.207852 -0.206544,0.339288 v 0 c -0.180233,0.258685 -0.42238,0.574407 -0.678745,0.996279 v 0 c -0.510224,0.830196 -0.935758,1.991266 -0.909354,3.464137 -0.01356,0.42817 -0.07953,0.849674 -0.194956,1.259336 -0.512573,1.819116 -1.860299,3.011899 -2.953713,3.626081 -1.711031,0.727661 -2.889362,1.033355 -3.049834,0.738623 z"
         id="path16501"
         class="UnoptimicedTransforms"
         transform="translate(-2.4676395,1.8512626)" /><path
         sodipodi:type="star"
         style="fill:#ffde00;fill-opacity:1;stroke:#e9afaf;stroke-width:0.265429;stroke-linecap:round;stroke-dasharray:none"
         id="path21868"
         inkscape:flatsided="false"
         sodipodi:sides="5"
         sodipodi:cx="115.60865"
         sodipodi:cy="43.149708"
         sodipodi:r1="33.4692"
         sodipodi:r2="22.417078"
         sodipodi:arg1="0.85425465"
         sodipodi:arg2="1.5049747"
         inkscape:rounded="0"
         inkscape:randomized="0"
         d="M 137.59058,68.388216 117.08311,65.518242 98.398192,71.85489 94.790544,51.464263 82.990076,35.651978 101.26789,25.919851 112.65972,9.810674 l 14.90396,14.375841 18.84101,5.856266 -9.06666,18.616886 z"
         transform="matrix(0.09437718,-0.03209576,0.0320931,0.09436935,42.287363,66.122681)"
         inkscape:transform-center-x="0.21725074"
         inkscape:transform-center-y="0.1048688" /><path
         style="fill:#4a3d79;fill-opacity:1;stroke-width:0.529167;stroke-linecap:round"
         d="M 93.309992,84.723982 105.63927,70.175436 122.90026,85.710324 Z"
         id="path27125" /><path
         style="fill:#005544;fill-opacity:1;stroke-width:0.529167;stroke-linecap:round"
         d="M 92.372372,29.3309 102.58345,12.253745"
         id="path11189"
         inkscape:path-effect="#path-effect11191;#path-effect11193"
         inkscape:original-d="M 92.372372,29.3309 102.58345,12.253745" /><path
         style="fill:#009879;fill-opacity:1;stroke:none;stroke-width:0.1;stroke-linecap:round;stroke-dasharray:none"
         d="m 51.486319,69.258877 c -0.160029,-0.293916 0.727734,-1.11526 2.183984,-2.111028 0.728753,-0.701097 1.686772,-1.734046 1.960785,-2.782358 0.06435,-0.246209 0.09112,-0.489178 0.07755,-0.730654 0.02634,-1.997605 0.934283,-3.516324 1.87998,-4.346575 v 0 c 0.466059,-0.402933 0.915701,-0.631886 1.251562,-0.735632 v 0 c 0.177516,-0.05485 0.326035,-0.07627 0.438578,-0.07009 v 0 h 10e-7 c 0.05919,0.0025 0.107608,0.01228 0.14539,0.02912 v 0 0 c 0.06322,0.07321 0.08121,0.07804 0.08431,0.078 4.02e-4,-6e-6 3.17e-4,3.4e-5 3.17e-4,3.3e-5 0,-10e-7 8.4e-5,-4.2e-5 -1.71e-4,2.64e-4 -0.002,0.0024 -0.0095,0.01944 0.01128,0.114657 v 0 0 c -0.006,0.03901 -0.01986,0.08312 -0.04042,0.130516 v 0 0 c -0.04246,0.09304 -0.114849,0.207852 -0.206544,0.339288 v 0 c -0.180233,0.258685 -0.42238,0.574407 -0.678745,0.996279 v 0 c -0.510224,0.830196 -0.935758,1.991266 -0.909354,3.464137 -0.01356,0.42817 -0.07953,0.849674 -0.194956,1.259336 -0.512573,1.819116 -1.860299,3.011899 -2.953713,3.626081 -1.711031,0.727661 -2.889362,1.033355 -3.049834,0.738623 z"
         id="path16501-2"
         class="UnoptimicedTransforms"
         transform="rotate(23.290684,198.12544,165.62467)" /><path
         style="fill:#009879;fill-opacity:1;stroke:none;stroke-width:0.120931;stroke-linecap:round;stroke-dasharray:none"
         d="m 51.486319,69.258877 c -0.160029,-0.293916 0.727734,-1.11526 2.183984,-2.111028 0.728753,-0.701097 1.686772,-1.734046 1.960785,-2.782358 0.06435,-0.246209 0.09112,-0.489178 0.07755,-0.730654 0.02634,-1.997605 0.934283,-3.516324 1.87998,-4.346575 v 0 c 0.466059,-0.402933 0.915701,-0.631886 1.251562,-0.735632 v 0 c 0.177516,-0.05485 0.326035,-0.07627 0.438578,-0.07009 v 0 h 10e-7 c 0.05919,0.0025 0.107608,0.01228 0.14539,0.02912 v 0 0 c 0.06322,0.07321 0.08121,0.07804 0.08431,0.078 4.02e-4,-6e-6 3.17e-4,3.4e-5 3.17e-4,3.3e-5 0,-10e-7 8.4e-5,-4.2e-5 -1.71e-4,2.64e-4 -0.002,0.0024 -0.0095,0.01944 0.01128,0.114657 v 0 0 c -0.006,0.03901 -0.01986,0.08312 -0.04042,0.130516 v 0 0 c -0.04246,0.09304 -0.114849,0.207852 -0.206544,0.339288 v 0 c -0.180233,0.258685 -0.42238,0.574407 -0.678745,0.996279 v 0 c -0.510224,0.830196 -0.935758,1.991266 -0.909354,3.464137 -0.01356,0.42817 -0.07953,0.849674 -0.194956,1.259336 -0.512573,1.819116 -1.860299,3.011899 -2.953713,3.626081 -1.711031,0.727661 -2.889362,1.033355 -3.049834,0.738623 z"
         id="path19371"
         class="UnoptimicedTransforms"
         transform="matrix(0.75953362,0.32696046,-0.32696046,0.75953362,30.315147,-45.43001)" /><path
         style="fill:#009879;fill-opacity:1;stroke:none;stroke-width:0.120931;stroke-linecap:round;stroke-dasharray:none"
         d="m 51.486319,69.258877 c -0.160029,-0.293916 0.727734,-1.11526 2.183984,-2.111028 0.728753,-0.701097 1.686772,-1.734046 1.960785,-2.782358 0.06435,-0.246209 0.09112,-0.489178 0.07755,-0.730654 0.02634,-1.997605 0.934283,-3.516324 1.87998,-4.346575 v 0 c 0.466059,-0.402933 0.915701,-0.631886 1.251562,-0.735632 v 0 c 0.177516,-0.05485 0.326035,-0.07627 0.438578,-0.07009 v 0 h 10e-7 c 0.05919,0.0025 0.107608,0.01228 0.14539,0.02912 v 0 0 c 0.06322,0.07321 0.08121,0.07804 0.08431,0.078 4.02e-4,-6e-6 3.17e-4,3.4e-5 3.17e-4,3.3e-5 0,-10e-7 8.4e-5,-4.2e-5 -1.71e-4,2.64e-4 -0.002,0.0024 -0.0095,0.01944 0.01128,0.114657 v 0 0 c -0.006,0.03901 -0.01986,0.08312 -0.04042,0.130516 v 0 0 c -0.04246,0.09304 -0.114849,0.207852 -0.206544,0.339288 v 0 c -0.180233,0.258685 -0.42238,0.574407 -0.678745,0.996279 v 0 c -0.510224,0.830196 -0.935758,1.991266 -0.909354,3.464137 -0.01356,0.42817 -0.07953,0.849674 -0.194956,1.259336 -0.512573,1.819116 -1.860299,3.011899 -2.953713,3.626081 -1.711031,0.727661 -2.889362,1.033355 -3.049834,0.738623 z"
         id="path20202"
         class="UnoptimicedTransforms"
         transform="matrix(0.75953362,0.32696046,-0.32696046,0.75953362,105.92381,4.1141304)" /><path
         sodipodi:type="star"
         style="fill:#ffde00;fill-opacity:1;stroke:#e9afaf;stroke-width:0.20046;stroke-linecap:round;stroke-dasharray:none"
         id="path21812"
         inkscape:flatsided="false"
         sodipodi:sides="5"
         sodipodi:cx="115.60865"
         sodipodi:cy="43.149708"
         sodipodi:r1="33.4692"
         sodipodi:r2="22.417078"
         sodipodi:arg1="0.85425465"
         sodipodi:arg2="1.5049747"
         inkscape:rounded="0"
         inkscape:randomized="0"
         d="M 137.59058,68.388216 117.08311,65.518242 98.398192,71.85489 94.790544,51.464263 82.990076,35.651978 101.26789,25.919851 112.65972,9.810674 l 14.90396,14.375841 18.84101,5.856266 -9.06666,18.616886 z"
         transform="matrix(0.13199147,0,0,0.13198483,30.491985,24.169802)"
         inkscape:transform-center-x="0.1202799"
         inkscape:transform-center-y="-0.30579944" /><path
         sodipodi:type="star"
         style="fill:#ffde00;fill-opacity:1;stroke:#e9afaf;stroke-width:0.265429;stroke-linecap:round;stroke-dasharray:none"
         id="path21866"
         inkscape:flatsided="false"
         sodipodi:sides="5"
         sodipodi:cx="115.60865"
         sodipodi:cy="43.149708"
         sodipodi:r1="33.4692"
         sodipodi:r2="22.417078"
         sodipodi:arg1="0.85425465"
         sodipodi:arg2="1.5049747"
         inkscape:rounded="0"
         inkscape:randomized="0"
         d="M 137.59058,68.388216 117.08311,65.518242 98.398192,71.85489 94.790544,51.464263 82.990076,35.651978 101.26789,25.919851 112.65972,9.810674 l 14.90396,14.375841 18.84101,5.856266 -9.06666,18.616886 z"
         transform="matrix(0.09437718,-0.03209576,0.0320931,0.09436935,97.163409,16.962346)"
         inkscape:transform-center-x="0.21725074"
         inkscape:transform-center-y="0.1048688" /></g><g
       id="g5649"
       inkscape:transform-center-x="1.0850041"
       inkscape:transform-center-y="-34.069131"
       transform="matrix(0.87353988,0,0,0.87353988,10.420514,14.33641)"
       style="stroke-width:1.14477"><g
         id="g3613"
         transform="translate(-1.7419996,28.778131)"
         style="stroke-width:1.14477"><rect
           style="fill:#2e3436;stroke-width:0.605773;stroke-linecap:round"
           id="rect3591"
           width="14.87463"
           height="5.6824427"
           x="77.019463"
           y="58.74715"
           rx="2.7971394"
           ry="2.7971394" /><rect
           style="fill:#2e3436;stroke-width:0.605771;stroke-linecap:round"
           id="rect3593"
           width="4.8467894"
           height="20.389942"
           x="82.033386"
           y="61.922153"
           rx="0.91142744"
           ry="10.036795" /><rect
           style="fill:#555753;stroke-width:0.605773;stroke-linecap:round"
           id="rect3485"
           width="30.151196"
           height="6.1028495"
           x="69.220016"
           y="54.547783"
           rx="2.2259271"
           ry="2.7971394" /><rect
           style="fill:#555753;stroke-width:0.605773;stroke-linecap:round"
           id="rect3595"
           width="14.87463"
           height="4.8467894"
           x="77.019463"
           y="78.468094"
           rx="2.7971394"
           ry="2.3857954" /><rect
           style="fill:#555753;stroke-width:0.605775;stroke-linecap:round"
           id="rect3597"
           width="3.8440056"
           height="4.8467894"
           x="74.679634"
           y="79.972267"
           rx="0.72285628"
           ry="2.3857954" /><rect
           style="fill:#555753;stroke-width:0.605775;stroke-linecap:round"
           id="rect3599"
           width="3.8440056"
           height="4.8467894"
           x="74.679634"
           y="79.4431"
           rx="0.72285628"
           ry="2.3857954" /><rect
           style="fill:#555753;stroke-width:0.605775;stroke-linecap:round"
           id="rect3601"
           width="3.8440056"
           height="4.8467894"
           x="90.025459"
           y="79.4431"
           rx="0.72285628"
           ry="2.3857954" /><rect
           style="fill:#555753;stroke-width:0.605775;stroke-linecap:round"
           id="rect3603"
           width="3.8440056"
           height="4.8467894"
           x="83.675461"
           y="79.4431"
           rx="0.72285628"
           ry="2.3857954" /><rect
           style="fill:#555753;stroke-width:0.605773;stroke-linecap:round"
           id="rect3615"
           width="24.066816"
           height="31.754827"
           x="72.450905"
           y="24.568209"
           rx="2.7971394"
           ry="2.7971394" /></g><g
         id="g4098"
         transform="translate(0,29.299653)"
         style="stroke-width:1.14477"><rect
           style="fill:#e25563;fill-opacity:1;stroke:none;stroke-width:0.114477;stroke-linecap:round"
           id="rect515"
           width="15.294061"
           height="5.6006417"
           x="73.97023"
           y="17.821413"
           ry="2.8003209"
           rx="2.9080255" /><rect
           style="fill:#e25563;fill-opacity:1;stroke:none;stroke-width:0.114477;stroke-linecap:round"
           id="rect2120"
           width="18.74061"
           height="5.6006417"
           x="72.246956"
           y="20.996416"
           ry="2.8003209"
           rx="3.5633552" /><path
           style="fill:#e25563;fill-opacity:1;stroke-width:0.605773;stroke-linecap:round"
           d="m 62.51675,45.129037 c 0,0 5.209438,-20.688776 6.945916,-21.460544 1.736481,-0.771769 22.188352,-2.701191 23.92483,-1.543537 1.73648,1.157653 11.769474,21.074658 11.383594,23.582907 -0.38589,2.508248 -9.647114,1.543537 -9.647114,1.543537 0,0 -35.694302,2.894132 -32.607226,-2.122363 z"
           id="path4167"
           sodipodi:nodetypes="cssscc" /><g
           id="g409"
           transform="matrix(-0.9990455,-0.04368162,-0.04368162,0.9990455,164.07193,1.4394407)"
           style="stroke-width:1.14477"><rect
             style="fill:#483737;fill-opacity:1;stroke-width:0.605773;stroke-linecap:round"
             id="rect5342"
             width="2.496511"
             height="5.6171494"
             x="85.26133"
             y="12.498936"
             rx="1.0096776"
             ry="1.3883067" /><path
             id="path4221"
             style="fill:#ffd9bf;fill-opacity:1;stroke-width:0.605773;stroke-linecap:round"
             d="m 87.020409,17.890897 c 0,4.057806 -1.531886,6.775182 -5.402381,6.775182 -3.673419,0 -5.40238,-2.717377 -5.40238,-6.775182 0,-4.057804 1.040213,-7.244753 5.40238,-7.347307 4.560261,-0.107211 5.402381,3.289502 5.402381,7.347307 z"
             sodipodi:nodetypes="sssss" /><path
             id="rect647"
             style="fill:#483737;stroke-width:0.605773;stroke-linecap:round"
             d="M 78.822398,8.6980178 C 81.716613,8.8657134 85.50922,7.5880839 87.505044,7.9081342 89.500869,8.2281846 87.907,12.79493 85.955674,12.910731 h -7.133276 c -1.259442,0 -2.273361,-0.891153 -2.273361,-1.998102 v -0.21651 c 0,-1.1069482 1.016489,-2.0709263 2.273361,-1.9981012 z"
             sodipodi:nodetypes="szcssss" /><rect
             style="fill:#483737;fill-opacity:1;stroke-width:0.605773;stroke-linecap:round"
             id="rect5214"
             width="2.496511"
             height="6.3973093"
             x="75.615196"
             y="11.818504"
             rx="1.0096776"
             ry="1.581127" /><rect
             style="fill:#ffd9bf;fill-opacity:1;stroke-width:0.605773;stroke-linecap:round"
             id="rect5345"
             width="2.028415"
             height="4.3688941"
             x="75.303131"
             y="15.092828"
             rx="2.4805279"
             ry="3.9196229" /><circle
             style="fill:#241c1c;fill-opacity:1;stroke-width:0.605773;stroke-linecap:round"
             id="path5520"
             cx="81.595558"
             cy="17.351255"
             r="0.3905766" /><path
             style="fill:#483737;fill-opacity:1;stroke-width:0.605773;stroke-linecap:round"
             d="m 76.61722,21.044801 c 0,0 1.263398,-1.329893 2.194323,-1.130409 0.930923,0.199485 1.455267,2.12402 1.987224,2.12402 0.531958,0 1.220962,-1.411154 1.795355,-1.196903 0.598451,0.223225 3.735119,0.172485 3.868111,0.203292 0.471601,0.109244 0.398965,1.196903 0.398965,1.196903 0,0 -1.134215,2.859269 -1.666173,3.258236 -0.531956,0.398968 -3.495404,0.388445 -3.995919,0.465463 -0.827164,0.127281 -5.342272,-4.480806 -4.581886,-4.920602 z"
             id="path7933"
             sodipodi:nodetypes="cszsscssc" /><rect
             style="fill:#634b4b;fill-opacity:1;stroke-width:0.605866;stroke-linecap:round"
             id="rect14429"
             width="2.134635"
             height="0.5133366"
             x="83.503838"
             y="22.479269"
             rx="0.2134635"
             ry="0.2566683"
             transform="matrix(0.99678408,-0.0801342,0.05533343,0.99846793,0,0)" /><path
             style="fill:#ffd9bf;fill-opacity:1;stroke-width:0.605773;stroke-linecap:round"
             d="m 82.114688,23.179529 c 0,0 0.243735,-2.004867 0.937567,-1.884874 0.654302,0.113157 2.42341,0.08723 2.804297,0.251817 0.602405,0.260316 -0.229263,1.948862 -0.570285,1.993976 -0.341023,0.04511 -0.852554,0.406035 -0.895183,0.04511 -0.04262,-0.360919 0.383651,-0.279564 0.08526,-0.369793 -0.298395,-0.09023 -1.125446,-0.574277 -1.125446,-0.168248 0,0.406034 0.341023,-0.03624 -0.170512,0.189335 -0.511532,0.225574 -1.150949,0.270689 -1.150949,0 0,-0.27069 0.08526,-0.05733 0.08526,-0.05733 z"
             id="path14435"
             sodipodi:nodetypes="csssssssscc" /><path
             style="opacity:1;fill:#ffbcbc;fill-opacity:1;stroke:none;stroke-width:0.302887;stroke-linecap:round;stroke-dasharray:none"
             d="m 85.642718,21.837124 -0.122436,0.330478 -1.265187,0.354644 -1.448841,-0.487634 0.16973,-0.311345 0.646347,0.09101 0.653172,-0.03859 0.721455,0.113778 z"
             id="path17981"
             sodipodi:nodetypes="ccccccccc" /><path
             id="path24683"
             style="fill:#cfab93;fill-opacity:1;stroke:none;stroke-width:0.302887;stroke-linecap:round;stroke-dasharray:none"
             d="m 84.235436,17.045652 1.160238,2.448221 -0.106183,0.310884 0.02947,2.55e-4 -0.0414,0.03595 -0.01777,0.05147 -0.03868,-0.0027 -0.198337,0.170816 -0.695423,-0.0066 -0.330095,0.06109 -0.310354,-0.165644 0.377309,-0.277305 0.399206,0.132803 0.396209,2.54e-4 0.177438,-0.260699 -0.906095,-2.262792 z" /><use
             x="0"
             y="0"
             xlink:href="#rect14429"
             id="use35559"
             transform="matrix(-1,0,0,1,166.72851,-0.07252989)"
             style="stroke-width:1.14477" /><rect
             style="opacity:1;fill:#483737;fill-opacity:1;stroke:none;stroke-width:0.302887;stroke-linecap:round;stroke-dasharray:none"
             id="rect42602"
             width="2.7775736"
             height="2.5557561"
             x="-78.872025"
             y="11.783834"
             transform="scale(-1,1)"
             rx="1.0531088"
             ry="0.95542276" /><circle
             style="fill:#241c1c;fill-opacity:1;stroke-width:0.605773;stroke-linecap:round"
             id="circle1224"
             cx="85.780228"
             cy="17.384306"
             r="0.3905766" /></g><path
           style="fill:#e25563;fill-opacity:1;stroke-width:0.605773;stroke-linecap:round"
           d="m 62.714417,46.851257 c 0,0 -0.906801,-4.931711 1.251862,-6.904397 2.158664,-1.972683 4.74906,-3.698782 8.634653,-1.232927 3.885596,2.465856 23.097699,0.986341 26.119826,0.246584 3.022132,-0.739756 5.287922,4.979187 6.346392,6.904397 3.03401,5.51839 -42.350293,0.988665 -42.352733,0.986343 z"
           id="path19142"
           sodipodi:nodetypes="cssssc" /><ellipse
           style="fill:#ffd9bf;fill-opacity:1;stroke-width:0.605773;stroke-linecap:round"
           id="ellipse20742"
           cx="96.488617"
           cy="44.385399"
           rx="3.3289051"
           ry="2.3425627" /><ellipse
           style="fill:#f4e3d7;fill-opacity:1;stroke-width:0.605773;stroke-linecap:round"
           id="path20405"
           cx="70.030296"
           cy="44.385399"
           rx="3.3289051"
           ry="2.3425627" /><ellipse
           style="fill:#ffd9bf;fill-opacity:1;stroke-width:0.605773;stroke-linecap:round"
           id="ellipse20740"
           cx="70.030296"
           cy="44.385399"
           rx="3.3289051"
           ry="2.3425627" /><rect
           style="fill:#f4e3d7;fill-opacity:1;stroke:none;stroke-width:0.114477;stroke-linecap:round"
           id="rect2174"
           width="1.0770465"
           height="7.754735"
           x="79.228043"
           y="24.79397"
           ry="0.53852326" /><rect
           style="fill:#f4e3d7;fill-opacity:1;stroke:none;stroke-width:0.114477;stroke-linecap:round"
           id="rect2176"
           width="1.0770465"
           height="7.754735"
           x="83.516907"
           y="24.383343"
           ry="0.53852326" /><g
           id="g16832"
           transform="matrix(-1,0,0,1,166.83728,0)"
           style="stroke-width:1.14477"><path
             id="path3942"
             style="fill:#535d6c;fill-opacity:1;stroke-width:0.605773;stroke-linecap:round"
             d="m 72.516082,55.483368 c -1.013754,-0.01451 -2.017183,0.172841 -2.964573,0.659938 -0.886971,0.515156 -0.870822,4.049349 -1.27289,5.052774 1.951668,6.700094 3.037245,10.781477 5.528791,17.273688 0.53932,1.782537 2.531788,1.927559 3.991924,1.977236 1.862443,0.595434 1.067526,-1.954974 1.411109,-3.169666 0.303907,-2.64372 0.154484,-5.303955 -0.140512,-7.939388 -0.439835,-4.196779 -1.026012,-8.373275 -1.615659,-12.547605 -1.530829,-0.697065 -3.248599,-1.282819 -4.93819,-1.306977 z"
             sodipodi:nodetypes="scccccccs" /><path
             style="fill:#373e48;fill-opacity:1;stroke-width:0.605773;stroke-linecap:round"
             d="m 68.328663,61.170347 0.582517,-13.09155 27.54171,0.246586 2.181333,10.356593 -7.642976,2.716223 c 0,0 -4.837973,-3.769939 -7.284934,-3.877159 -2.446961,-0.10722 -5.930996,2.518132 -5.930996,2.518132 0,0 -2.511496,-3.677671 -4.080309,-3.924506 -1.568813,-0.246835 -2.539451,0.812374 -3.475891,1.695447 -0.93644,0.883073 -1.890454,3.360234 -1.890454,3.360234 z"
             id="path16207"
             sodipodi:nodetypes="ccccczczzc" /><path
             style="fill:#535d6c;fill-opacity:1;stroke-width:0.605773;stroke-linecap:round"
             d="m 100.84061,57.454434 c -0.14605,2.345918 0.4899,4.866083 -0.71283,7.036617 -2.146149,5.21642 -4.292304,10.432838 -6.438459,15.649256 -1.397318,0.739756 -2.794636,1.479513 -4.191954,2.219269 -0.222389,-2.940301 -0.677265,-5.896118 -0.245477,-8.840835 0.32841,-3.875255 0.656821,-7.750511 0.985231,-11.625767 1.206074,-1.848161 2.332057,-3.758953 3.588289,-5.567891 1.58109,-1.591253 4.338306,-1.406095 5.895152,0.127081 0.395258,0.308597 0.764838,0.648719 1.120048,1.00227 z"
             id="path16645"
             sodipodi:nodetypes="cccccccc" /><g
             id="use2717"
             transform="matrix(-1,0,0,1,168.53609,0)"
             style="stroke-width:1.14477"><path
               style="fill:#1c1f24;fill-opacity:1;stroke:none;stroke-width:0.114477;stroke-linecap:round"
               d="m 68.050869,82.758267 c -0.192329,-0.46941 0.412534,-1.768357 0.818582,-2.394317 0.406048,-0.625961 0.614247,-1.01366 1.42502,-1.325762 0.810773,-0.312103 2.569686,-0.04374 3.265917,0.04706 0.696231,0.09081 -0.31934,-0.879311 0.556033,-0.736358 0.875368,0.142957 3.957381,1.834996 4.723921,1.310266 0.76654,-0.52473 -0.515026,-1.146623 0.344347,-1.147816 0.859373,-0.0012 1.505578,2.860097 1.147816,3.787794 -0.357762,0.927697 -0.772397,0.770087 -1.721726,1.033036 -0.949329,0.262949 -2.218167,0.04675 -3.902575,0 -1.684408,-0.04675 -5.115555,-0.05683 -6.198209,-0.344344 -1.082654,-0.287514 -0.266797,0.239847 -0.459126,-0.229563 z"
               id="path2719"
               sodipodi:nodetypes="zzzzzzzzzzzzz" /><path
               style="fill:#373e48;fill-opacity:1;stroke:none;stroke-width:0.114477;stroke-linecap:round"
               d="m 68.050869,83.676519 c 0.171205,-0.519664 1.128684,-2.620848 1.951286,-2.639978 0.822602,-0.01913 1.467176,0.433517 2.289778,0.414385 0.822602,-0.01913 1.949984,1.577354 2.365674,1.536904 0.41569,-0.04045 4.229432,-0.08892 4.630714,-0.176962 0.401282,-0.08804 0.93463,-0.960656 1.044184,-0.626512 0.109554,0.334144 1.014458,1.463126 0.691104,2.000655 -0.323354,0.537529 -1.652986,0.369058 -1.936873,0.394318 -0.283887,0.02526 -10.768048,-0.09934 -10.806308,-0.214118 -0.03826,-0.114781 -0.191304,-0.573912 -0.229559,-0.688689 -0.03825,-0.114778 -0.171205,0.519661 0,-3e-6 z"
               id="path2721"
               sodipodi:nodetypes="zzzzzzzzzzz" /></g><g
             id="g2729"
             transform="matrix(-0.81460179,0,0,1,138.33577,0)"
             style="stroke-width:1.26837"><path
               style="fill:#1c1f24;fill-opacity:1;stroke:none;stroke-width:0.126837;stroke-linecap:round"
               d="m 68.050869,82.758267 c -0.192329,-0.46941 0.412534,-1.768357 0.818582,-2.394317 0.406048,-0.625961 0.614247,-1.01366 1.42502,-1.325762 0.810773,-0.312103 2.273247,-0.707811 2.969478,-0.617011 0.696231,0.09081 0.339319,0.750681 1.214692,0.893634 0.875368,0.142957 2.631732,0.748335 3.398272,0.223605 0.76654,-0.52473 0.448403,-1.025883 1.307776,-1.027076 0.859373,-0.0012 1.505578,2.860097 1.147816,3.787794 -0.357762,0.927697 -0.772397,0.770087 -1.721726,1.033036 -0.949329,0.262949 -2.218167,0.04675 -3.902575,0 -1.684408,-0.04675 -5.115555,-0.05683 -6.198209,-0.344344 -1.082654,-0.287514 -0.266797,0.239847 -0.459126,-0.229563 z"
               id="path2725"
               sodipodi:nodetypes="zzzzzzzzzzzzz" /><path
               style="fill:#373e48;fill-opacity:1;stroke:none;stroke-width:0.126837;stroke-linecap:round"
               d="m 68.050869,83.676519 c 0.171205,-0.519664 1.128684,-2.620848 1.951286,-2.639978 0.822602,-0.01913 1.467176,0.433517 2.289778,0.414385 0.822602,-0.01913 1.949984,1.577354 2.365674,1.536904 0.41569,-0.04045 4.229432,-0.08892 4.630714,-0.176962 0.401282,-0.08804 0.93463,-0.960656 1.044184,-0.626512 0.109554,0.334144 1.014458,1.463126 0.691104,2.000655 -0.323354,0.537529 -1.457212,0.251594 -1.741099,0.276854 -0.283887,0.02526 -10.963822,0.01813 -11.002082,-0.09665 -0.03826,-0.114781 -0.191304,-0.573912 -0.229559,-0.688689 -0.03825,-0.114778 -0.171205,0.519661 0,-3e-6 z"
               id="path2727"
               sodipodi:nodetypes="zzzzzzzzzzz" /></g></g></g><g
         id="g5535"
         style="stroke-width:1.14477"><rect
           style="fill:url(#linearGradient27069);fill-opacity:1;stroke-width:0.605773;stroke-linecap:round"
           id="rect27009"
           width="69.290535"
           height="30.823196"
           x="47.086632"
           y="83.116501"
           rx="1.7278203"
           ry="2.6945567" /><rect
           style="fill:#1e949d;fill-opacity:1;stroke-width:0.605775;stroke-linecap:round"
           id="rect3427"
           width="4.068573"
           height="37.379955"
           x="44.403294"
           y="76.342461" /><rect
           style="fill:#1e949d;fill-opacity:1;stroke-width:0.605775;stroke-linecap:round"
           id="rect3429"
           width="4.068573"
           height="37.379955"
           x="114.36745"
           y="76.342461" /><rect
           style="fill:#1c8890;fill-opacity:1;stroke-width:0.605774;stroke-linecap:round"
           id="rect3431"
           width="74.922058"
           height="7.6285639"
           x="43.925968"
           y="76.342461" /><rect
           style="fill:#25b2bc;fill-opacity:1;stroke-width:0.605773;stroke-linecap:round"
           id="rect3373"
           width="80.500328"
           height="2.5428538"
           x="40.90934"
           y="75.833878" /></g><g
         id="g5250"
         style="stroke-width:1.14477"><rect
           style="fill:#c8b7b7;stroke-width:0.605774;stroke-linecap:round"
           id="rect3674"
           width="26.685802"
           height="17.388142"
           x="70.221443"
           y="57.606728"
           rx="2.2443218"
           ry="2.6945567" /><g
           id="g3786"
           transform="matrix(0.80236328,0,0,0.88680883,15.240642,34.781923)"
           style="stroke-width:1.35713"><rect
             style="fill:#808080;stroke-width:0.718141;stroke-linecap:round"
             id="rect3782"
             width="33.259003"
             height="1.8384364"
             x="68.523575"
             y="-46.462337"
             rx="2.7971394"
             ry="0.28489366"
             transform="scale(1,-1)" /></g><rect
           style="fill:#f4e3d7;fill-opacity:1;stroke-width:0.605773;stroke-linecap:round"
           id="rect17995"
           width="4.2518339"
           height="2.7057123"
           x="81.331169"
           y="64.931122"
           rx="0.72285628"
           ry="2.3857954" /></g><g
         id="g525"
         transform="translate(-5.2916665,27.182988)"
         style="stroke-width:1.14477"><path
           id="rect359"
           style="fill:#f4d0b7;fill-opacity:1;stroke-width:0.605773;stroke-linecap:round"
           d="m 59.12809,41.651751 c 0.478999,0 0.901456,0.43762 1.161253,1.111906 -0.16255,-0.126131 -0.347397,-0.197395 -0.543638,-0.197395 H 59.05354 c -0.654691,0 -1.181897,0.792329 -1.181897,1.775925 0,0.983596 0.527206,1.7753 1.181897,1.7753 h 0.692165 c 0.196241,0 0.381088,-0.07126 0.543638,-0.197394 -0.259786,0.674475 -0.682174,1.111905 -1.161253,1.111905 h -0.839543 c -0.793565,0 -1.432499,-1.199514 -1.432499,-2.689811 0,-1.490297 0.638934,-2.690436 1.432499,-2.690436 z" /><rect
           style="fill:#c5b7ae;fill-opacity:1;stroke-width:0.605773;stroke-linecap:round"
           id="rect357"
           width="5.8621311"
           height="8.0988045"
           x="58.553463"
           y="40.729858"
           rx="0.80216056"
           ry="0.88546026" /><rect
           style="fill:#f4e3d7;stroke-width:0.605773;stroke-linecap:round"
           id="rect7505"
           width="5.8621311"
           height="8.0988045"
           x="58.553463"
           y="40.200691"
           rx="0.80216056"
           ry="0.88546026" /><path
           id="path6701"
           style="fill:#ffffff;fill-opacity:1;stroke-width:0.605773;stroke-linecap:round"
           d="m 63.203415,42.409375 a 1.7887508,1.9420388 0 0 0 -1.789038,1.942001 1.7887508,1.9420388 0 0 0 1.789038,1.942 1.7887508,1.9420388 0 0 0 1.212329,-0.514697 v -2.855123 a 1.7887508,1.9420388 0 0 0 -1.212329,-0.514181 z" /></g></g><g
       id="g8395"
       transform="matrix(0.66402074,0,0,0.66402074,28.248908,16.885654)"
       style="stroke-width:1.50598"><path
         id="path7348"
         style="opacity:1;fill:#ffe680;stroke:none;stroke-width:0.398456;stroke-linecap:round"
         d="m 81.861189,20.684603 c -1.836849,-1.8e-5 -3.325913,1.489046 -3.325895,3.325895 6.99e-4,1.254974 0.738868,2.685237 1.299145,2.967778 0.560278,0.282541 0.529167,1.002006 0.529167,1.002006 0,0.394863 0.317754,0.713134 0.712618,0.713134 h 1.56993 c 0.394864,0 0.713135,-0.318271 0.713135,-0.713134 0,0 -0.03101,-0.719393 0.529167,-1.002006 0.560177,-0.282613 1.298028,-1.712918 1.298628,-2.967778 1.8e-5,-1.836849 -1.489046,-3.325913 -3.325895,-3.325895 z"
         sodipodi:nodetypes="cczsssszcc" /><rect
         style="opacity:1;fill:#d38d5f;stroke:none;stroke-width:0.398456;stroke-linecap:round"
         id="rect8390"
         width="1.0866122"
         height="0.94605625"
         x="81.318062"
         y="30.720861"
         ry="0.21865827" /><path
         style="fill:none;stroke:#deaa87;stroke-width:0.398456;stroke-linecap:round"
         d="m 80.848682,24.07172 0.648192,4.044711 h 0.855609 l 0.544482,-4.044712"
         id="path8451"
         sodipodi:nodetypes="cccc" /><rect
         style="opacity:1;fill:#deaa87;stroke:#d38d5f;stroke-width:0.398456;stroke-linecap:round"
         id="rect7506"
         width="2.9953804"
         height="2.9564743"
         x="80.363678"
         y="28.052021"
         ry="0.68331832" /><path
         style="opacity:1;fill:none;stroke:#ffb380;stroke-width:0.600067;stroke-linecap:round"
         d="m 80.523862,24.344684 0.803759,-0.777829 0.440768,0.700046 0.725976,-0.700046 0.907464,0.881539"
         id="path8672" /><path
         style="opacity:1;fill:#d38d5f;stroke:#d38d5f;stroke-width:0.600067;stroke-linecap:round"
         d="m 80.141318,29.284197 3.278598,-1.022832"
         id="path8836" /><path
         style="opacity:1;fill:#d38d5f;stroke:#d38d5f;stroke-width:0.600067;stroke-linecap:round"
         d="m 80.141318,30.563635 3.278598,-1.022832"
         id="path8892" /><path
         style="opacity:1;fill:none;fill-opacity:1;stroke:#ffeeaa;stroke-width:0.398456;stroke-linecap:round;stroke-dasharray:none"
         d="m 89.173244,20.118732 4.584025,-2.455726"
         id="path9590"
         inkscape:transform-center-x="-7.3922951"
         inkscape:transform-center-y="-4.7832498"
         sodipodi:nodetypes="cc" /><use
         x="0"
         y="0"
         xlink:href="#path9590"
         inkscape:transform-center-x="-4.0770147"
         inkscape:transform-center-y="7.8040659"
         id="use9592"
         transform="rotate(95.321691,81.584573,24.33792)" /><use
         x="0"
         y="0"
         xlink:href="#path9590"
         inkscape:transform-center-x="8.2298936"
         inkscape:transform-center-y="3.1295904"
         id="use9594"
         transform="rotate(-167.91512,81.822479,24.11971)" /><use
         x="0"
         y="0"
         xlink:href="#path9590"
         inkscape:transform-center-x="6.5335307"
         inkscape:transform-center-y="-5.9024128"
         id="use9596"
         transform="rotate(-105,82.013106,24.353662)" /><use
         x="0"
         y="0"
         xlink:href="#path9590"
         inkscape:transform-center-x="-0.63674987"
         inkscape:transform-center-y="-8.781802"
         id="use9598"
         transform="rotate(-52.947623,82.013107,24.353662)" /><use
         x="0"
         y="0"
         xlink:href="#path9590"
         inkscape:transform-center-x="-8.5255871"
         inkscape:transform-center-y="2.1999694"
         id="use9600"
         transform="rotate(47.374391,82.013106,24.353662)" /><use
         x="0"
         y="0"
         xlink:href="#path9590"
         inkscape:transform-center-x="5.2833963"
         inkscape:transform-center-y="7.0435225"
         id="use12522"
         transform="rotate(159.77907,82.334229,24.747767)" /></g></g></svg>
