<?xml version="1.0" encoding="UTF-8" standalone="no"?>
<!-- Created with Inkscape (http://www.inkscape.org/) -->

<svg
   width="400"
   height="400"
   viewBox="0 0 105.83333 105.83333"
   version="1.1"
   id="svg523"
   inkscape:version="1.2 (dc2aeda, 2022-05-15)"
   sodipodi:docname="writing.svg"
   xml:space="preserve"
   xmlns:inkscape="http://www.inkscape.org/namespaces/inkscape"
   xmlns:sodipodi="http://sodipodi.sourceforge.net/DTD/sodipodi-0.dtd"
   xmlns:xlink="http://www.w3.org/1999/xlink"
   xmlns="http://www.w3.org/2000/svg"
   xmlns:svg="http://www.w3.org/2000/svg"><sodipodi:namedview
     id="namedview525"
     pagecolor="#16161c"
     bordercolor="#eeeeee"
     borderopacity="1"
     inkscape:showpageshadow="0"
     inkscape:pageopacity="0"
     inkscape:pagecheckerboard="0"
     inkscape:deskcolor="#505050"
     inkscape:document-units="px"
     showgrid="false"
     inkscape:zoom="0.99496881"
     inkscape:cx="222.62004"
     inkscape:cy="125.12955"
     inkscape:window-width="1440"
     inkscape:window-height="847"
     inkscape:window-x="0"
     inkscape:window-y="25"
     inkscape:window-maximized="0"
     inkscape:current-layer="layer1" /><defs
     id="defs520"><linearGradient
       inkscape:collect="always"
       id="linearGradient64831"><stop
         style="stop-color:#676c53;stop-opacity:1;"
         offset="0"
         id="stop64827" /><stop
         style="stop-color:#5a6c53;stop-opacity:1;"
         offset="1"
         id="stop64829" /></linearGradient><linearGradient
       inkscape:collect="always"
       id="linearGradient64000"><stop
         style="stop-color:#8b9160;stop-opacity:1;"
         offset="0"
         id="stop63996" /><stop
         style="stop-color:#918145;stop-opacity:1;"
         offset="1"
         id="stop63998" /></linearGradient><linearGradient
       inkscape:collect="always"
       id="linearGradient63992"><stop
         style="stop-color:#a9cbca;stop-opacity:1;"
         offset="0"
         id="stop63988" /><stop
         style="stop-color:#a9cbca;stop-opacity:0;"
         offset="1"
         id="stop63990" /></linearGradient><linearGradient
       inkscape:collect="always"
       id="linearGradient40654"><stop
         style="stop-color:#1a1a1a;stop-opacity:1;"
         offset="0"
         id="stop40650" /><stop
         style="stop-color:#242424;stop-opacity:0.08627451;"
         offset="0.79176009"
         id="stop40834" /><stop
         style="stop-color:#000000;stop-opacity:0.57324839;"
         offset="1"
         id="stop40652" /></linearGradient><linearGradient
       inkscape:collect="always"
       id="linearGradient4730"><stop
         style="stop-color:#cda293;stop-opacity:0.7508772;"
         offset="0"
         id="stop4726" /><stop
         style="stop-color:#cdaf9a;stop-opacity:0.11578947;"
         offset="1"
         id="stop4728" /></linearGradient><linearGradient
       inkscape:collect="always"
       id="linearGradient35336"><stop
         style="stop-color:#ffffff;stop-opacity:1;"
         offset="0"
         id="stop35332" /><stop
         style="stop-color:#000000;stop-opacity:1"
         offset="1"
         id="stop35334" /></linearGradient><linearGradient
       inkscape:collect="always"
       id="linearGradient12854"><stop
         style="stop-color:#000000;stop-opacity:1;"
         offset="0"
         id="stop12850" /><stop
         style="stop-color:#ffffff;stop-opacity:1"
         offset="0.35066351"
         id="stop12982" /><stop
         style="stop-color:#ffffff;stop-opacity:1"
         offset="1"
         id="stop12852" /></linearGradient><mask
       maskUnits="userSpaceOnUse"
       id="mask23724"><rect
         style="fill:url(#linearGradient23728);fill-opacity:1;stroke-width:1.05833;stroke-linecap:round"
         id="rect23726"
         width="105.97196"
         height="106.3355"
         x="-0.18177007"
         y="-0.18177016" /></mask><linearGradient
       inkscape:collect="always"
       xlink:href="#linearGradient12854"
       id="linearGradient23728"
       gradientUnits="userSpaceOnUse"
       x1="105.60842"
       y1="54.803684"
       x2="52.531563"
       y2="54.803684"
       spreadMethod="reflect" /><mask
       maskUnits="userSpaceOnUse"
       id="mask36981"><rect
         style="opacity:1;fill:url(#linearGradient36985);fill-opacity:1;stroke:none;stroke-width:1.05833;stroke-linecap:round"
         id="rect36983"
         width="99.810249"
         height="100.76689"
         x="0.58485931"
         y="0.043161567" /></mask><linearGradient
       inkscape:collect="always"
       xlink:href="#linearGradient35336"
       id="linearGradient36985"
       gradientUnits="userSpaceOnUse"
       x1="57.549629"
       y1="77.886894"
       x2="57.549629"
       y2="113.3978"
       gradientTransform="matrix(0.93642929,0,0,0.93642929,1.5415071,0.99980934)" /><clipPath
       clipPathUnits="userSpaceOnUse"
       id="clipPath469"><circle
         style="opacity:0.293956;fill:#323ba9;stroke-width:1.05833;stroke-linecap:round"
         id="circle471"
         cx="52.916664"
         cy="52.916664"
         r="52.744289" /></clipPath><linearGradient
       inkscape:collect="always"
       xlink:href="#linearGradient1809"
       id="linearGradient1811"
       x1="53.76796"
       y1="57.659595"
       x2="54.659863"
       y2="93.930984"
       gradientUnits="userSpaceOnUse"
       gradientTransform="translate(10.030757,-6.0184543)" /><linearGradient
       inkscape:collect="always"
       id="linearGradient1809"><stop
         style="stop-color:#d3a85f;stop-opacity:1;"
         offset="0"
         id="stop1805" /><stop
         style="stop-color:#fff7e2;stop-opacity:0;"
         offset="1"
         id="stop1807" /></linearGradient><radialGradient
       inkscape:collect="always"
       xlink:href="#linearGradient4730"
       id="radialGradient4732"
       cx="19.758101"
       cy="41.263176"
       fx="19.758101"
       fy="41.263176"
       r="66.116688"
       gradientTransform="matrix(1.2224123,0,0,1.2057934,-4.3944445,-8.3995658)"
       gradientUnits="userSpaceOnUse" /><filter
       inkscape:collect="always"
       style="color-interpolation-filters:sRGB"
       id="filter13096"
       x="-0.041936894"
       y="-0.048260317"
       width="1.0838738"
       height="1.0965206"><feGaussianBlur
         inkscape:collect="always"
         stdDeviation="0.43375982"
         id="feGaussianBlur13098" /></filter><linearGradient
       inkscape:collect="always"
       xlink:href="#linearGradient40654"
       id="linearGradient40656"
       x1="76.516647"
       y1="49.527348"
       x2="64.116783"
       y2="49.524681"
       gradientUnits="userSpaceOnUse"
       spreadMethod="repeat" /><linearGradient
       inkscape:collect="always"
       xlink:href="#linearGradient63992"
       id="linearGradient63994"
       x1="89.531693"
       y1="17.643009"
       x2="90.058342"
       y2="49.031765"
       gradientUnits="userSpaceOnUse" /><linearGradient
       inkscape:collect="always"
       xlink:href="#linearGradient64000"
       id="linearGradient64002"
       x1="86.618599"
       y1="27.56492"
       x2="76.829124"
       y2="48.315205"
       gradientUnits="userSpaceOnUse" /><linearGradient
       inkscape:collect="always"
       xlink:href="#linearGradient64831"
       id="linearGradient64833"
       x1="95.512527"
       y1="41.184654"
       x2="96.623878"
       y2="48.768517"
       gradientUnits="userSpaceOnUse" /></defs><g
     inkscape:label="Слой 1"
     inkscape:groupmode="layer"
     id="layer1"><circle
       style="opacity:0.293956;fill:#323ba9;stroke-width:1.05833;stroke-linecap:round"
       id="path717"
       cx="52.916664"
       cy="52.916664"
       r="52.744289" /><g
       id="g467"
       clip-path="url(#clipPath469)"><rect
         style="opacity:0.556872;fill:#ffffff;fill-opacity:1;stroke:none;stroke-width:0.529167;stroke-linecap:round;stroke-dasharray:none;stroke-opacity:1"
         id="rect41732"
         width="44.17968"
         height="46.778484"
         x="76.507545"
         y="5.1976094"
         rx="0"
         ry="0" /><path
         style="opacity:0.615776;fill:url(#radialGradient4732);fill-opacity:1;stroke-width:1.05833;stroke-linecap:round"
         d="M 62.484917,73.461333 4.2110928,73.314624 -7.5904356,56.528771 13.183388,-17.178354 124.64294,-10.986157 121.44697,113.25729 81.047397,108.21754 Z"
         id="path462"
         sodipodi:nodetypes="cccccccc" /><rect
         style="opacity:0.739336;fill:#6c6753;fill-opacity:1;stroke:none;stroke-width:0.529167;stroke-linecap:round;stroke-dasharray:none;stroke-opacity:1"
         id="rect42618"
         width="44.17968"
         height="4.5479059"
         x="76.369576"
         y="-56.523998"
         rx="1.5351278"
         ry="0.14924845"
         transform="scale(1,-1)" /><rect
         style="opacity:0.556872;fill:#3d5598;fill-opacity:1;stroke:none;stroke-width:0.529167;stroke-linecap:round;stroke-dasharray:none;stroke-opacity:1"
         id="rect42620"
         width="44.17968"
         height="46.778484"
         x="76.231613"
         y="2.0226088"
         rx="0"
         ry="0" /><path
         style="opacity:1;fill:url(#linearGradient63994);fill-opacity:1;stroke:none;stroke-width:0.529167;stroke-linecap:round;stroke-dasharray:none;stroke-opacity:1"
         d="m 77.839908,23.594234 c 0,0 1.790634,-6.00389 7.162535,-5.26657 5.371902,0.73732 6.951871,-1.158645 6.951871,-1.158645 l 9.901156,12.323773 5.68789,18.64366 -2.94928,0.947981 -7.79452,-0.631989 -16.537032,-16.53703 z"
         id="path57130" /><path
         style="opacity:1;fill:url(#linearGradient64833);fill-opacity:1;stroke:none;stroke-width:0.529167;stroke-linecap:round;stroke-dasharray:none;stroke-opacity:1"
         d="m 89.403308,48.702729 c 0,0 2.621394,-11.175415 7.312308,-8.416052 4.690914,2.759361 3.587174,8.554019 3.587174,8.554019 z"
         id="path47956" /><path
         id="path55317"
         style="opacity:1;fill:url(#linearGradient64002);fill-opacity:1;stroke:none;stroke-width:0.529167;stroke-linecap:round;stroke-dasharray:none;stroke-opacity:1"
         d="M 76.498171 23.352579 L 76.498171 29.28555 C 76.372616 29.347837 76.296116 29.387353 76.296116 29.387353 L 76.572068 48.840945 L 89.817254 48.840945 C 89.817254 48.840945 96.853355 41.390166 94.093995 31.456477 C 92.262773 24.864076 85.026843 26.110817 80.364084 27.694949 C 79.883999 26.23131 78.937169 24.711137 77.123972 23.644551 C 76.911064 23.519311 76.7025 23.422755 76.498171 23.352579 z " /><rect
         style="opacity:0.556872;fill:url(#linearGradient40656);fill-opacity:1;stroke:none;stroke-width:0.529167;stroke-linecap:round;stroke-dasharray:none;stroke-opacity:1"
         id="rect40648"
         width="83.130722"
         height="115.85239"
         x="-6.6327705"
         y="-4.6429391"
         rx="1.5351278"
         ry="1.5351278" /><path
         id="path4425"
         style="fill:#002b22;fill-opacity:1;stroke-width:1.05833;stroke-linecap:round"
         d="m 39.884003,78.198194 v 29.957326 c 2.124774,0.94338 4.309595,1.74525 6.540169,2.40037 V 78.198194 Z"
         sodipodi:nodetypes="ccccc" /><path
         id="rect4363"
         style="fill:#005544;stroke-width:1.05833;stroke-linecap:round"
         d="m 49.538711,78.198194 v 33.185036 c 2.156393,0.47906 4.340751,0.82218 6.540169,1.02733 V 78.198194 Z"
         sodipodi:nodetypes="ccccc" /><path
         id="rect4368"
         style="fill:#004537;fill-opacity:1;stroke-width:1.05833;stroke-linecap:round"
         d="m 2.8702453,78.353737 c 2.588054,3.924859 4.101741,7.486081 7.6336407,10.589018 H 50.66319 c 0.929742,0 1.678452,-0.824718 1.678452,-1.848983 v -6.891051 c 0,-1.024266 -0.748709,-1.848984 -1.678451,-1.848984 z"
         sodipodi:nodetypes="ccssssc" /><g
         id="g11468"
         transform="translate(3.1749976,-4.7624995)"
         style="fill:#918a6f"><path
           style="opacity:1;fill:#918a6f;fill-opacity:1;stroke:none;stroke-width:2.11667;stroke-linecap:round;stroke-dasharray:none"
           d="m 35.446954,70.86523 1.799293,-3.871212 0.38167,-0.05452 0.16357,0.327144 -1.581197,3.59859 z"
           id="path11464" /><path
           style="fill:#918a6f;fill-opacity:1;stroke:none;stroke-width:2.11667;stroke-linecap:round;stroke-dasharray:none"
           d="m 38.216113,71.492634 c 0,0 1.114555,-0.0643 1.264592,0.192905 0.150037,0.257204 0.685882,3.065029 0.685882,3.386534 0,0.321506 -1.500365,1.564664 -1.907606,1.457495 -0.407242,-0.107167 -0.02143,-1.028819 -0.02143,-1.028819 0,0 0.878785,-0.300072 0.96452,-0.471543 0.08574,-0.171472 -0.08573,-2.593486 -0.214338,-2.679222 -0.128604,-0.08573 -0.857351,-0.0643 -0.857351,-0.0643 z"
           id="path11470" /><rect
           style="opacity:1;fill:#918a6f;fill-opacity:1;stroke:none;stroke-width:2.11667;stroke-linecap:round;stroke-dasharray:none"
           id="rect11358"
           width="5.5841937"
           height="7.3024073"
           x="32.646057"
           y="70.339355"
           rx="1.6544577"
           ry="0.46769044" /></g><g
         id="g456"
         transform="matrix(1.307497,0,0,1.307497,-4.9118254,39.985479)"
         style="opacity:0.337912;fill:#c8ab37;stroke-width:0.76482"><g
           id="g13094"
           transform="matrix(1.3616768,0,0,1.3616768,-1.4641118,-9.1630398)"
           style="opacity:0.613232;fill:#1a1a1a;stroke-width:0.561675;filter:url(#filter13096)"><path
             style="fill:#1a1a1a;fill-opacity:1;stroke:none;stroke-width:0.594439;stroke-linecap:round"
             d="m 9.6273615,13.290308 c 0,0 2.4257565,-4.8515125 4.7706545,-3.4769173 2.344898,1.3745953 1.69803,2.5066153 1.69803,2.5066153 l -1e-6,3.800351 c 0,0 -0.485151,-4.528078 -0.970302,-3.962069 -0.485151,0.56601 -5.4983815,1.13202 -5.4983815,1.13202 z"
             id="path13086"
             sodipodi:nodetypes="csccsc" /><path
             style="fill:#1a1a1a;fill-opacity:1;stroke:none;stroke-width:0.594439;stroke-linecap:round"
             d="m 16.500338,13.775459 c 0,0 -0.56601,-14.63539619 12.371357,-6.872976 0,0 -9.622166,1.9406053 -10.51161,2.5066151 -0.889444,0.5660098 -0.889444,0.5660098 -0.889444,0.5660098 z"
             id="path13088" /><path
             style="fill:#1a1a1a;fill-opacity:1;stroke:none;stroke-width:0.594439;stroke-linecap:round"
             d="m 15.691752,14.341469 c 0,0 2.021464,-8.4901469 -3.153483,-10.1073178 C 7.3633224,2.6169802 4.048122,5.689605 4.048122,5.689605 c 0,0 4.44722,3.1534832 6.872976,3.0726246 0,0 4.204644,-3.0726253 4.770654,5.5792394 z"
             id="path13090" /><path
             style="fill:#1a1a1a;fill-opacity:1;stroke:none;stroke-width:0.59444;stroke-linecap:round"
             d="M 12.260576,25.059735 C 11.30123,22.199954 10.183681,20.052087 9.9217982,14.053724 l 11.5563108,0.137575 c -0.414782,3.805903 -0.378668,7.686954 -2.889078,11.143586 L 12.810876,25.19731 Z"
             id="path13092"
             sodipodi:nodetypes="cccccc" /></g><g
           id="g13084"
           transform="translate(0,0.4047173)"><path
             style="fill:#c8ab37;fill-opacity:1;stroke:none;stroke-width:0.809434;stroke-linecap:round"
             d="m 9.6273615,13.290308 c 0,0 2.4257565,-4.8515125 4.7706545,-3.4769173 2.344898,1.3745953 1.69803,2.5066153 1.69803,2.5066153 l -1e-6,3.800351 c 0,0 -0.485151,-4.528078 -0.970302,-3.962069 -0.485151,0.56601 -5.4983815,1.13202 -5.4983815,1.13202 z"
             id="path14608"
             sodipodi:nodetypes="csccsc" /><path
             style="fill:#c8ab37;fill-opacity:1;stroke:none;stroke-width:0.809434;stroke-linecap:round"
             d="m 16.500338,13.775459 c 0,0 -0.56601,-14.63539619 12.371357,-6.872976 0,0 -9.622166,1.9406053 -10.51161,2.5066151 -0.889444,0.5660098 -0.889444,0.5660098 -0.889444,0.5660098 z"
             id="path14604" /><path
             style="fill:#c8ab37;fill-opacity:1;stroke:none;stroke-width:0.809434;stroke-linecap:round"
             d="m 15.691752,14.341469 c 0,0 2.021464,-8.4901469 -3.153483,-10.1073178 C 7.3633224,2.6169802 4.048122,5.689605 4.048122,5.689605 c 0,0 4.44722,3.1534832 6.872976,3.0726246 0,0 4.204644,-3.0726253 4.770654,5.5792394 z"
             id="path14606" /><path
             style="fill:#c8ab37;fill-opacity:1;stroke:none;stroke-width:0.809435;stroke-linecap:round"
             d="M 12.260576,25.059735 C 11.30123,22.199954 10.183681,20.052087 9.9217982,14.053724 l 11.5563108,0.137575 c -0.414782,3.805903 -0.378668,7.686954 -2.889078,11.143586 L 12.810876,25.19731 Z"
             id="path14375"
             sodipodi:nodetypes="cccccc" /></g></g><g
         id="g1355"
         transform="matrix(1.0550882,0,0,1.0550882,-36.283758,-16.346561)"
         style="stroke-width:0.947788"><path
           style="opacity:1;fill:url(#linearGradient1811);fill-opacity:1;stroke-width:1.00308;stroke-linecap:round"
           d="m 71.292704,51.592959 13.592911,33.182542 -41.021301,1.502214 c -2.27007,-2.084599 -4.700871,3.800599 -4.685251,-1.81643 L 54.653257,51.5814 Z"
           id="path1799"
           sodipodi:nodetypes="cccccc" /><ellipse
           style="opacity:1;fill:#fff6d5;stroke-width:1.00307;stroke-linecap:round"
           id="path1134"
           cx="62.947418"
           cy="50.100842"
           rx="3.390151"
           ry="3.5811458" /><path
           style="color:#000000;fill:#1d212b;stroke-linecap:round"
           d="m 54.75,48.671875 c -1.011071,0.176953 -2.167537,0.391558 -3.347473,0.828924 -0.175639,0.0651 -0.243072,0.406962 -0.425011,0.468396 -0.214083,0.07229 -0.541363,-0.157479 -0.759209,-0.07758 -1.52669,0.559965 -3.139685,1.311195 -4.753535,2.313731 -0.140551,0.08731 -0.16992,0.371114 -0.310428,0.462278 -0.148203,0.09616 -0.407541,-1.08e-4 -0.555566,0.100424 -1.367119,0.928483 -2.723847,2.045581 -4.018006,3.387958 -0.181132,0.187881 -0.138656,0.630355 -0.317194,0.827162 -0.183855,0.202669 -0.588641,0.159945 -0.769437,0.372297 -0.887206,1.042057 -1.733293,2.200139 -2.520904,3.48573 -0.111507,0.182009 5.4e-4,0.53336 -0.108573,0.720513 -0.127081,0.217971 -0.474887,0.272667 -0.598577,0.497711 -0.513601,0.93446 -0.997296,1.930344 -1.445515,2.991337 -0.06593,0.156066 -0.131094,0.591519 -0.195471,0.750414 -2.228337,5.499939 -3.515776,12.423797 -3.127054,21.81406 0.02281,0.553293 0.489664,0.983432 1.042969,0.960938 0.553292,-0.02281 0.983431,-0.489664 0.960937,-1.042969 -0.607147,-14.66673 2.944945,-23.503927 7.519531,-28.876953 4.574587,-5.373026 10.247355,-7.340006 14.074219,-8.009766 0.545032,-0.09584 0.909477,-0.614981 0.814453,-1.160156 C 55.814313,48.941296 55.295175,48.576851 54.75,48.671875 Z"
           id="path7841"
           sodipodi:nodetypes="csssssssssssssscccsccc" /><path
           style="opacity:1;fill:#232733;fill-opacity:1;stroke:none;stroke-width:0.501538;stroke-linecap:round;stroke-dasharray:none"
           d="m 51.381677,48.572858 0.4351,2.900669 2.755635,-0.145035 1.305301,-3.915902 z"
           id="path6970"
           sodipodi:nodetypes="ccccc" /><path
           style="opacity:1;fill:#232733;fill-opacity:1;stroke-width:1.00307;stroke-linecap:round"
           id="path1080"
           sodipodi:type="arc"
           sodipodi:cx="62.947418"
           sodipodi:cy="51.589905"
           sodipodi:rx="8.4689569"
           sodipodi:ry="8.4689569"
           sodipodi:start="3.1311251"
           sodipodi:end="0.0092622139"
           sodipodi:arc-type="arc"
           d="m 54.478925,51.678552 a 8.4689569,8.4689569 0 0 1 4.205509,-7.406447 8.4689569,8.4689569 0 0 1 8.517145,-0.0051 8.4689569,8.4689569 0 0 1 4.214433,7.401373"
           sodipodi:open="true" /><rect
           style="opacity:1;fill:#fff6d5;stroke-width:1.00308;stroke-linecap:round"
           id="rect2539"
           width="17.034174"
           height="0.58202094"
           x="54.432293"
           y="51.464325"
           rx="0.26031694"
           ry="0.26031694" /><path
           style="fill:none;fill-opacity:1;stroke:#d3bc5f;stroke-width:0.501538;stroke-linecap:round;stroke-dasharray:none;stroke-opacity:1"
           d="m 34.608962,74.704452 c -0.270477,-1.887531 0.183171,-4.349229 1.185999,-6.968596 0.06529,-0.170527 -0.129167,-0.429077 -0.05927,-0.600826 0.05915,-0.145358 0.382008,-0.203756 0.444398,-0.349837 0.494022,-1.156717 1.088578,-2.333916 1.769139,-3.497008 0.07943,-0.135738 -0.07293,-0.387759 0.0088,-0.523059 0.07308,-0.120954 0.380021,-0.125237 0.454918,-0.245757 0.809441,-1.302517 1.724145,-2.577378 2.723283,-3.774997 0.128565,-0.154105 -0.04725,-0.584908 0.08407,-0.73635 0.115036,-0.132665 0.536886,0.01371 0.653969,-0.116759 1.12028,-1.248356 2.332931,-2.392934 3.611822,-3.371521 0.173755,-0.132956 0.126352,-0.59642 0.302488,-0.723091 0.183739,-0.132139 0.591118,0.0728 0.777301,-0.05215 1.644211,-1.103487 3.380828,-1.919879 5.158613,-2.327191"
           id="path22052"
           sodipodi:nodetypes="cssssssssssssc" /><path
           style="fill:none;fill-opacity:1;stroke:#decd87;stroke-width:0.501538;stroke-linecap:round;stroke-dasharray:none;stroke-opacity:1"
           d="m 51.630819,51.749277 2.614748,-0.243231"
           id="path22270" /></g><g
         id="g35262"
         transform="translate(-10.583333)"><path
           style="opacity:1;fill:none;fill-opacity:1;stroke:#ffe680;stroke-width:0.529167;stroke-linecap:round;stroke-dasharray:none"
           d="m 20.381589,46.632432 7.803099,24.854236 c 0,0 0.823709,-0.433531 1.430652,0.433531 l 0.737003,0.04335 0.216765,-0.303472 2.080949,-0.04335 0.216765,0.39018 h 0.606944 l 0.260118,-0.26012 2.167655,-0.08671 0.216766,0.260119 0.693649,-0.08671 0.216766,-0.216765 2.080948,0.130059 0.216766,0.26012 0.56359,-0.08671 0.260119,-0.26012 2.080948,0.04335 0.346825,0.390178 h 0.520238 l 0.13006,-0.390178 h 2.037596 l 0.346825,0.346824 h 8.453854"
           id="path4506" /><rect
           style="fill:#bbae79;fill-opacity:1;stroke-width:1.05834;stroke-linecap:round"
           id="rect4254"
           width="1.6369165"
           height="1.1107647"
           x="26.894617"
           y="71.377281"
           rx="1.6544576"
           ry="1.1107647" /><g
           id="g4323"
           style="stroke-width:0.947788"
           transform="matrix(1.0550882,0,0,1.0550882,-31.4824,-16.203463)"><rect
             style="opacity:1;fill:#868686;fill-opacity:1;stroke-width:1.00308;stroke-linecap:round"
             id="rect4308"
             width="2.2440615"
             height="0.4432714"
             x="58.656437"
             y="83.423546"
             rx="0.27619216"
             ry="0.2216357" /><rect
             style="opacity:1;fill:#868686;fill-opacity:1;stroke-width:1.00308;stroke-linecap:round"
             id="rect4310"
             width="2.2440615"
             height="0.4432714"
             x="61.665668"
             y="83.423546"
             rx="0.27619216"
             ry="0.2216357" /><rect
             style="opacity:1;fill:#868686;fill-opacity:1;stroke-width:1.00308;stroke-linecap:round"
             id="rect4312"
             width="2.2440615"
             height="0.4432714"
             x="64.674881"
             y="83.423546"
             rx="0.27619216"
             ry="0.2216357" /><rect
             style="opacity:1;fill:#868686;fill-opacity:1;stroke-width:1.00308;stroke-linecap:round"
             id="rect4314"
             width="2.2440615"
             height="0.4432714"
             x="67.684128"
             y="83.423546"
             rx="0.27619216"
             ry="0.2216357" /><rect
             style="opacity:1;fill:#868686;fill-opacity:1;stroke-width:1.00308;stroke-linecap:round"
             id="rect4316"
             width="2.2440615"
             height="0.4432714"
             x="70.693375"
             y="83.423546"
             rx="0.27619216"
             ry="0.2216357" /></g><rect
           style="fill:#b3b3b3;fill-opacity:1;stroke-width:1.05834;stroke-linecap:round"
           id="rect4196"
           width="26.494606"
           height="1.0782382"
           x="27.959688"
           y="72.015022"
           rx="0.74209338"
           ry="0.44519603" /><rect
           style="fill:#b3b3b3;fill-opacity:1;stroke-width:1.05834;stroke-linecap:round"
           id="rect4198"
           width="26.606865"
           height="0.94512671"
           x="-76.994072"
           y="4.606267"
           rx="0.40819103"
           ry="0.40819103"
           inkscape:transform-center-x="3.7000032"
           transform="rotate(-107.38663)"
           inkscape:transform-center-y="-11.816372" /><path
           style="opacity:1;fill:none;fill-opacity:1;stroke:#333333;stroke-width:0.529167;stroke-linecap:round;stroke-dasharray:none"
           d="m 19.641138,47.401138 7.718826,24.416697 0.472582,0.236291 0.315054,0.787636"
           id="path4616" /></g><g
         id="g21126" /></g><rect
       style="opacity:1;fill:#008066;stroke-width:1.05833;stroke-linecap:round"
       id="rect1176"
       width="62.190601"
       height="5.1387324"
       x="0.71437037"
       y="73.190804"
       rx="1.3342136"
       ry="1.3342136" /><g
       id="g37150"
       transform="translate(-73.311619,-66.569976)"
       style="opacity:0.556872" /><g
       id="g39729"
       transform="translate(-9.8116159,-66.569976)"
       style="opacity:0.556872" /></g></svg>
